<svg width="24" height="24" viewBox="0 0 24 24" fill="white" xmlns="http://www.w3.org/2000/svg">
<path d="M12 2C9.35831 2.03369 6.8343 3.09807 4.96618 4.96618C3.09807 6.8343 2.03369 9.35831 2 12C2.01235 13.5389 2.37972 15.0542 3.07351 16.4279C3.7673 17.8016 4.76879 18.9967 6 19.92V20H6.1C7.79318 21.2975 9.86685 22.0006 12 22.0006C14.1332 22.0006 16.2068 21.2975 17.9 20H18V19.92C19.2312 18.9967 20.2327 17.8016 20.9265 16.4279C21.6203 15.0542 21.9877 13.5389 22 12C21.9663 9.35831 20.9019 6.8343 19.0338 4.96618C17.1657 3.09807 14.6417 2.03369 12 2V2ZM8.07 18.93C8.21599 18.2614 8.58615 17.6629 9.11908 17.2336C9.65202 16.8044 10.3157 16.5702 11 16.57H13C13.6843 16.5702 14.348 16.8044 14.8809 17.2336C15.4138 17.6629 15.784 18.2614 15.93 18.93C14.7389 19.6308 13.382 20.0004 12 20.0004C10.618 20.0004 9.26113 19.6308 8.07 18.93V18.93ZM17.61 17.64C17.2296 16.7309 16.5891 15.9546 15.7689 15.4084C14.9487 14.8622 13.9854 14.5705 13 14.57H11C10.0146 14.5705 9.05127 14.8622 8.23108 15.4084C7.41088 15.9546 6.77037 16.7309 6.39 17.64C5.64066 16.903 5.0439 16.0255 4.63381 15.0578C4.22373 14.0901 4.00835 13.051 4 12C4.02594 9.88633 4.87712 7.86653 6.37183 6.37183C7.86653 4.87712 9.88633 4.02594 12 4C14.1137 4.02594 16.1335 4.87712 17.6282 6.37183C19.1229 7.86653 19.9741 9.88633 20 12C19.9916 13.051 19.7763 14.0901 19.3662 15.0578C18.9561 16.0255 18.3593 16.903 17.61 17.64V17.64Z"/>
<path d="M12 5.99996C11.4714 5.98765 10.9457 6.08269 10.4548 6.27935C9.96397 6.47601 9.51809 6.7702 9.14417 7.14411C8.77026 7.51803 8.47607 7.96391 8.27941 8.45478C8.08275 8.94565 7.98771 9.47131 8.00002 9.99996C7.98771 10.5286 8.08275 11.0543 8.27941 11.5451C8.47607 12.036 8.77026 12.4819 9.14417 12.8558C9.51809 13.2297 9.96397 13.5239 10.4548 13.7206C10.9457 13.9172 11.4714 14.0123 12 14C12.5287 14.0123 13.0543 13.9172 13.5452 13.7206C14.0361 13.5239 14.482 13.2297 14.8559 12.8558C15.2298 12.4819 15.524 12.036 15.7206 11.5451C15.9173 11.0543 16.0123 10.5286 16 9.99996C16.0123 9.47131 15.9173 8.94565 15.7206 8.45478C15.524 7.96391 15.2298 7.51803 14.8559 7.14411C14.482 6.7702 14.0361 6.47601 13.5452 6.27935C13.0543 6.08269 12.5287 5.98765 12 5.99996ZM12 12C11.734 12.0128 11.4682 11.9699 11.2197 11.8739C10.9712 11.778 10.7456 11.6311 10.5572 11.4428C10.3689 11.2544 10.222 11.0288 10.126 10.7803C10.0301 10.5318 9.98716 10.266 10 9.99996C9.98716 9.73391 10.0301 9.46811 10.126 9.21964C10.222 8.97116 10.3689 8.7455 10.5572 8.55716C10.7456 8.36881 10.9712 8.22195 11.2197 8.12599C11.4682 8.03003 11.734 7.9871 12 7.99996C12.2661 7.9871 12.5319 8.03003 12.7803 8.12599C13.0288 8.22195 13.2545 8.36881 13.4428 8.55716C13.6312 8.7455 13.778 8.97116 13.874 9.21964C13.97 9.46811 14.0129 9.73391 14 9.99996C14.0129 10.266 13.97 10.5318 13.874 10.7803C13.778 11.0288 13.6312 11.2544 13.4428 11.4428C13.2545 11.6311 13.0288 11.778 12.7803 11.8739C12.5319 11.9699 12.2661 12.0128 12 12Z"/>
</svg>
