<svg width="155" height="50" viewBox="0 0 155 50" fill="none" xmlns="http://www.w3.org/2000/svg">
<path d="M153.544 43.5331C153.544 46.4299 151.264 48.7489 148.466 48.7489H5.63261C2.83506 48.7489 0.554688 46.4299 0.554688 43.5331V5.71585C0.554688 2.81899 2.83506 0.5 5.63261 0.5H148.466C151.264 0.5 153.544 2.81899 153.544 5.71585V43.5331Z" stroke="black"/>
<path d="M19.9375 9.53076V23.871V38.1859L34.0304 23.871L19.9375 9.53076Z" fill="url(#paint0_linear)"/>
<path d="M37.8066 20.0017L32.1299 16.638L19.9375 9.42993V9.5311L34.0304 23.8713L37.8066 20.0017Z" fill="url(#paint1_linear)"/>
<path d="M19.9375 38.186V38.2872L32.1299 31.0791L37.8066 27.7154L34.0304 23.8711L19.9375 38.186Z" fill="url(#paint2_linear)"/>
<path d="M37.8074 20.002L34.0312 23.8715L37.8074 27.7158L44.3232 23.8715L37.8074 20.002Z" fill="url(#paint3_linear)"/>
<path d="M112.182 31.5418C111.663 31.5418 111.17 31.4407 110.726 31.2383C110.281 31.036 109.911 30.7325 109.615 30.3026H109.516C109.566 30.7831 109.615 31.2383 109.615 31.6936V35.1332H108.381V23.0692H109.393L109.566 24.2073H109.615C109.936 23.7521 110.306 23.4233 110.726 23.221C111.145 23.0186 111.639 22.9175 112.182 22.9175C113.268 22.9175 114.082 23.2969 114.675 24.0556C115.267 24.8143 115.563 25.8766 115.563 27.2423C115.563 28.608 115.267 29.6703 114.675 30.429C114.058 31.1625 113.218 31.5418 112.182 31.5418ZM111.984 23.9797C111.145 23.9797 110.553 24.2073 110.183 24.6879C109.812 25.1684 109.615 25.9019 109.615 26.9388V27.217C109.615 28.3804 109.812 29.215 110.183 29.7209C110.553 30.2267 111.17 30.4796 112.009 30.4796C112.7 30.4796 113.268 30.1761 113.663 29.5944C114.058 29.0127 114.255 28.2034 114.255 27.1917C114.255 26.1548 114.058 25.3455 113.663 24.789C113.268 24.2579 112.725 23.9797 111.984 23.9797Z" fill="black"/>
<path d="M118.402 31.3901H117.168V19.5537H118.402V31.3901Z" fill="black"/>
<path d="M125.485 31.3901L125.239 30.2014H125.189C124.794 30.7325 124.375 31.0866 123.98 31.2636C123.585 31.4407 123.067 31.5418 122.474 31.5418C121.66 31.5418 121.043 31.3395 120.574 30.9095C120.105 30.4796 119.883 29.8726 119.883 29.0886C119.883 27.3941 121.191 26.5341 123.832 26.433L125.214 26.3824V25.8766C125.214 25.219 125.066 24.7385 124.794 24.435C124.523 24.1315 124.079 23.9797 123.486 23.9797C122.82 23.9797 122.03 24.182 121.191 24.612L120.821 23.6509C121.216 23.4233 121.66 23.2463 122.129 23.1198C122.598 22.9934 123.091 22.9175 123.56 22.9175C124.523 22.9175 125.239 23.1451 125.708 23.5751C126.176 24.005 126.399 24.7132 126.399 25.6995V31.3901H125.485ZM122.696 30.5049C123.462 30.5049 124.054 30.2773 124.498 29.8473C124.942 29.4174 125.165 28.8104 125.165 28.0263V27.2676L123.931 27.3182C122.943 27.3435 122.252 27.5205 121.808 27.7987C121.364 28.0769 121.166 28.5069 121.166 29.0886C121.166 29.5438 121.29 29.8979 121.561 30.1255C121.833 30.3784 122.203 30.5049 122.696 30.5049Z" fill="black"/>
<path d="M127.115 23.0693H128.423L130.2 27.8241C130.595 28.9116 130.842 29.6957 130.916 30.1762H130.965C131.04 29.9233 131.163 29.4681 131.36 28.8611C131.558 28.2288 132.249 26.3066 133.384 23.0946H134.717L131.237 32.5536C130.891 33.4894 130.497 34.147 130.028 34.5516C129.559 34.9563 128.991 35.1333 128.325 35.1333C127.954 35.1333 127.584 35.0827 127.214 35.0069V33.9952C127.485 34.0458 127.782 34.0964 128.127 34.0964C128.966 34.0964 129.583 33.6158 129.929 32.6295L130.373 31.4408L127.115 23.0693Z" fill="black"/>
<path d="M89.3535 23.8278C89.7484 24.1566 90.5629 24.8648 90.5629 26.1799C90.5629 27.4698 89.8472 28.0768 89.1314 28.6585C88.9093 28.8861 88.6625 29.139 88.6625 29.5184C88.6625 29.8978 88.9093 30.1001 89.1067 30.2771L89.7237 30.7577C90.4642 31.4152 91.1553 31.9969 91.1553 33.2109C91.1553 34.8549 89.6003 36.4988 86.688 36.4988C84.2198 36.4988 83.0352 35.2848 83.0352 33.995C83.0352 33.3627 83.3313 32.4775 84.3433 31.8705C85.4045 31.2129 86.8361 31.1117 87.6012 31.0612C87.3544 30.7577 87.0829 30.4289 87.0829 29.8725C87.0829 29.569 87.1569 29.3919 87.2556 29.1896C87.0582 29.2149 86.8854 29.2149 86.7126 29.2149C84.9109 29.2149 83.899 27.8492 83.899 26.4834C83.899 25.6741 84.2445 24.7889 84.985 24.1566C85.9475 23.3473 87.1075 23.1956 88.0208 23.1956H91.5255L90.4395 23.8278H89.3535ZM88.1442 31.567C87.9961 31.5417 87.922 31.5417 87.7493 31.5417C87.6012 31.5417 86.688 31.567 85.9722 31.8199C85.602 31.9464 84.516 32.3763 84.516 33.6156C84.516 34.8549 85.7007 35.7401 87.5024 35.7401C89.1314 35.7401 89.9952 34.9307 89.9952 33.8685C89.9952 32.9833 89.4523 32.5028 88.1442 31.567ZM88.6378 28.2538C89.0327 27.8492 89.0574 27.2928 89.0574 26.9893C89.0574 25.7247 88.3169 23.7773 86.9101 23.7773C86.4658 23.7773 85.9969 24.0049 85.7254 24.359C85.4292 24.713 85.3552 25.1936 85.3552 25.6488C85.3552 26.8122 86.0216 28.7597 87.4778 28.7597C87.922 28.7597 88.3663 28.532 88.6378 28.2538Z" fill="black"/>
<path d="M78.6406 31.2886C75.9503 31.2886 74.4941 29.1389 74.4941 27.1914C74.4941 24.9152 76.3205 22.9678 78.8874 22.9678C81.3802 22.9678 82.9351 24.9658 82.9351 27.065C82.9597 29.1136 81.4048 31.2886 78.6406 31.2886ZM80.7631 29.8723C81.1827 29.3159 81.2814 28.6077 81.2814 27.9502C81.2814 26.4074 80.5657 23.4989 78.4678 23.4989C77.9001 23.4989 77.3571 23.7265 76.9376 24.0806C76.2712 24.6876 76.1478 25.4463 76.1478 26.2051C76.1478 27.9249 76.9869 30.7575 79.0355 30.7575C79.7018 30.7828 80.3682 30.4287 80.7631 29.8723Z" fill="black"/>
<path d="M69.4355 31.2886C66.7452 31.2886 65.2891 29.1389 65.2891 27.1914C65.2891 24.9152 67.1155 22.9678 69.6823 22.9678C72.1751 22.9678 73.73 24.9658 73.73 27.065C73.7547 29.1136 72.1997 31.2886 69.4355 31.2886ZM71.558 29.8723C71.9776 29.3159 72.0763 28.6077 72.0763 27.9502C72.0763 26.4074 71.3606 23.4989 69.2627 23.4989C68.695 23.4989 68.1521 23.7265 67.7325 24.0806C67.0661 24.6876 66.9427 25.4463 66.9427 26.2051C66.9427 27.9249 67.7818 30.7575 69.8304 30.7575C70.4968 30.7828 71.1631 30.4287 71.558 29.8723Z" fill="black"/>
<path d="M64.0053 31.0106L61.5619 31.5923C60.5746 31.744 59.6861 31.8958 58.7482 31.8958C54.0341 31.8958 52.2324 28.355 52.2324 25.5729C52.2324 22.1839 54.7746 19.0225 59.1184 19.0225C60.0316 19.0225 60.9202 19.1742 61.7346 19.4018C63.018 19.7812 63.6104 20.2112 63.9806 20.4894L62.5738 21.8804L61.9814 22.0321L62.401 21.324C61.8087 20.7423 60.7721 19.68 58.7482 19.68C56.058 19.68 54.0095 21.7792 54.0095 24.8395C54.0095 28.1274 56.3295 31.2129 60.0563 31.2129C61.1423 31.2129 61.71 30.9853 62.2283 30.7829V27.9503L59.6614 28.1021L61.0189 27.3433H64.647L64.2027 27.7733C64.0793 27.8744 64.0547 27.925 64.03 28.0515C64.0053 28.2032 64.0053 28.7091 64.0053 28.8861V31.0106Z" fill="black"/>
<path d="M94.757 30.5047C94.1894 30.4541 94.066 30.353 94.066 29.6701V29.4678V19.7812C94.066 19.7559 94.066 19.7053 94.066 19.68C94.14 19.073 94.3128 18.9719 94.8311 18.6431H92.4123L91.1289 19.2754H92.437V29.4931V30.0748C92.437 30.4288 92.363 30.4794 91.9681 31.0105H94.9792L95.6209 30.6312C95.3247 30.5806 95.0532 30.5553 94.757 30.5047Z" fill="black"/>
<path d="M101.693 30.6815C101.496 30.7827 101.323 30.9092 101.125 30.985C100.558 31.2379 99.99 31.3138 99.4717 31.3138C98.9287 31.3138 98.0896 31.2885 97.2257 30.631C96.0163 29.7711 95.498 28.2789 95.498 26.9637C95.498 24.2828 97.6453 22.9424 99.373 22.9424C99.99 22.9424 100.607 23.0941 101.125 23.4229C101.964 24.0046 102.187 24.7381 102.31 25.1427L98.3364 26.812L97.0283 26.9131C97.4479 29.1135 98.904 30.4033 100.533 30.4033C101.397 30.4033 102.014 30.0998 102.606 29.7963L101.693 30.6815ZM100.113 25.4968C100.434 25.3704 100.607 25.2692 100.607 25.0163C100.607 24.3334 99.8419 23.5241 98.9287 23.5241C98.2376 23.5241 96.9789 24.0552 96.9789 25.9268C96.9789 26.2303 97.0036 26.5338 97.0283 26.8373L100.113 25.4968Z" fill="black"/>
<path d="M103.346 23.0942V24.2323H103.198V23.0942H102.828V22.9678H103.692V23.0942H103.346Z" fill="black"/>
<path d="M104.853 24.2323V23.0689L104.507 24.2323H104.408L104.063 23.0689V24.2323H103.939V22.9678H104.162L104.482 23.9794L104.803 22.9678H105.025V24.2323H104.853Z" fill="black"/>
<path d="M55.9972 16.4924H55.3295V15.6082H53.2133V16.4899H52.5288L52.4902 15.0129H52.7554C52.8984 14.8911 53.0084 14.7124 53.0856 14.477C53.1643 14.2399 53.2173 13.9468 53.2446 13.5977L53.3459 12.012H55.6453V15.0129H56.055L55.9972 16.4924ZM53.5845 15.0129H54.9222V12.6122H54.0328L53.9725 13.5582C53.9243 14.1921 53.795 14.677 53.5845 15.0129Z" fill="black"/>
<path d="M59.2607 13.8916C59.2607 14.2456 59.1996 14.556 59.0775 14.8227C58.9554 15.0895 58.7802 15.2953 58.552 15.4402C58.3255 15.5851 58.0652 15.6576 57.7711 15.6576C57.4803 15.6576 57.2208 15.5859 56.9926 15.4427C56.7644 15.2994 56.5877 15.0953 56.4623 14.8302C56.337 14.5634 56.2735 14.2571 56.2719 13.9114V13.7335C56.2719 13.3795 56.3338 13.0683 56.4575 12.7999C56.5829 12.5299 56.7588 12.3232 56.9854 12.18C57.2135 12.0351 57.4739 11.9626 57.7663 11.9626C58.0587 11.9626 58.3182 12.0351 58.5448 12.18C58.773 12.3232 58.9489 12.5299 59.0727 12.7999C59.198 13.0683 59.2607 13.3787 59.2607 13.7311V13.8916ZM58.5279 13.7286C58.5279 13.3515 58.4621 13.065 58.3303 12.8691C58.1985 12.6731 58.0105 12.5752 57.7663 12.5752C57.5237 12.5752 57.3365 12.6723 57.2047 12.8666C57.0729 13.0593 57.0063 13.3425 57.0047 13.7162V13.8916C57.0047 14.2588 57.0705 14.5436 57.2023 14.7462C57.3341 14.9487 57.5237 15.05 57.7711 15.05C58.0138 15.05 58.2001 14.9528 58.3303 14.7585C58.4605 14.5626 58.5263 14.2777 58.5279 13.904V13.7286Z" fill="black"/>
<path d="M62.541 14.4103C62.5137 14.7972 62.3739 15.1018 62.1216 15.3241C61.871 15.5464 61.54 15.6576 61.1286 15.6576C60.6787 15.6576 60.3244 15.5028 60.0657 15.1932C59.8086 14.882 59.68 14.4556 59.68 13.9138V13.694C59.68 13.3482 59.7395 13.0436 59.8584 12.7802C59.9773 12.5167 60.1468 12.315 60.367 12.1751C60.5887 12.0334 60.8458 11.9626 61.1383 11.9626C61.5432 11.9626 61.8694 12.0738 62.1168 12.2961C62.3643 12.5184 62.5073 12.8304 62.5458 13.2322H61.8228C61.8051 13 61.7416 12.832 61.6324 12.7283C61.5247 12.6229 61.36 12.5702 61.1383 12.5702C60.8972 12.5702 60.7165 12.6591 60.5959 12.837C60.477 13.0132 60.416 13.2873 60.4128 13.6594V13.9311C60.4128 14.3197 60.4698 14.6037 60.5839 14.7832C60.6996 14.9627 60.8812 15.0524 61.1286 15.0524C61.352 15.0524 61.5183 15.0006 61.6275 14.8968C61.7384 14.7915 61.8019 14.6293 61.8179 14.4103H62.541Z" fill="black"/>
<path d="M65.5852 12.6122H64.5102V15.6082H63.7871V12.6122H62.7266V12.012H65.5852V12.6122Z" fill="black"/>
<path d="M67.3158 13.7113L67.9545 12.012H68.7354L67.5086 14.9783L67.4098 15.1735C67.2282 15.4978 66.9502 15.66 66.5758 15.66L66.3227 15.6501L66.3155 15.0549C66.3541 15.0615 66.4167 15.0648 66.5035 15.0648C66.6047 15.0648 66.6859 15.0467 66.7469 15.0105C66.8096 14.9742 66.8618 14.9075 66.9036 14.8104L66.9928 14.5758L65.7611 12.012H66.5396L67.3158 13.7113Z" fill="black"/>
<path d="M71.9772 15.6082H71.2517V12.6122H69.8465V15.6082H69.1234V12.012H71.9772V15.6082Z" fill="black"/>
<path d="M75.4697 15.6082H74.7466V14.067H73.3366V15.6082H72.6135V12.012H73.3366V13.4693H74.7466V12.012H75.4697V15.6082Z" fill="black"/>
<path d="M78.9862 13.8916C78.9862 14.2456 78.9252 14.556 78.8031 14.8227C78.6809 15.0895 78.5058 15.2953 78.2776 15.4402C78.0511 15.5851 77.7907 15.6576 77.4967 15.6576C77.2059 15.6576 76.9464 15.5859 76.7182 15.4427C76.49 15.2994 76.3133 15.0953 76.1879 14.8302C76.0626 14.5634 75.9991 14.2571 75.9975 13.9114V13.7335C75.9975 13.3795 76.0594 13.0683 76.1831 12.7999C76.3084 12.5299 76.4844 12.3232 76.711 12.18C76.9391 12.0351 77.1994 11.9626 77.4919 11.9626C77.7843 11.9626 78.0438 12.0351 78.2704 12.18C78.4986 12.3232 78.6745 12.5299 78.7982 12.7999C78.9236 13.0683 78.9862 13.3787 78.9862 13.7311V13.8916ZM78.2535 13.7286C78.2535 13.3515 78.1876 13.065 78.0559 12.8691C77.9241 12.6731 77.7361 12.5752 77.4919 12.5752C77.2492 12.5752 77.062 12.6723 76.9303 12.8666C76.7985 13.0593 76.7318 13.3425 76.7302 13.7162V13.8916C76.7302 14.2588 76.7961 14.5436 76.9279 14.7462C77.0596 14.9487 77.2492 15.05 77.4967 15.05C77.7393 15.05 77.9257 14.9528 78.0559 14.7585C78.186 14.5626 78.2519 14.2777 78.2535 13.904V13.7286Z" fill="black"/>
<path d="M80.7409 15.6082V12.012H81.9701C82.396 12.012 82.7189 12.096 82.9391 12.264C83.1592 12.4303 83.2693 12.6748 83.2693 12.9975C83.2693 13.1737 83.2251 13.3293 83.1367 13.4643C83.0483 13.5977 82.9254 13.6957 82.7679 13.7582C82.9479 13.8043 83.0893 13.8974 83.1921 14.0373C83.2966 14.1773 83.3488 14.3485 83.3488 14.5511C83.3488 14.8968 83.2412 15.1586 83.0258 15.3365C82.8105 15.5143 82.5036 15.6049 82.1051 15.6082H80.7409ZM81.464 14.0423V15.0129H82.0834C82.2537 15.0129 82.3863 14.9718 82.4811 14.8894C82.5775 14.8055 82.6257 14.6902 82.6257 14.5436C82.6257 14.2143 82.4594 14.0472 82.1268 14.0423H81.464ZM81.464 13.5187H81.9991C82.3638 13.5121 82.5462 13.3631 82.5462 13.0716C82.5462 12.9086 82.4996 12.7917 82.4064 12.7209C82.3148 12.6484 82.1694 12.6122 81.9701 12.6122H81.464V13.5187Z" fill="black"/>
<defs>
<linearGradient id="paint0_linear" x1="26.9794" y1="9.53354" x2="26.9794" y2="38.1893" gradientUnits="userSpaceOnUse">
<stop stop-color="#257CB0"/>
<stop offset="0.2863" stop-color="#4A93B5"/>
<stop offset="0.767" stop-color="#78BCBB"/>
<stop offset="1" stop-color="#89CFBD"/>
</linearGradient>
<linearGradient id="paint1_linear" x1="19.9288" y1="16.6458" x2="37.8175" y2="16.6458" gradientUnits="userSpaceOnUse">
<stop stop-color="#52C1AD"/>
<stop offset="1" stop-color="#DEE89A"/>
</linearGradient>
<linearGradient id="paint2_linear" x1="28.873" y1="23.8618" x2="28.873" y2="38.2937" gradientUnits="userSpaceOnUse">
<stop stop-color="#EC413D"/>
<stop offset="0.1668" stop-color="#DA4452"/>
<stop offset="0.5748" stop-color="#B0487A"/>
<stop offset="0.8619" stop-color="#954A92"/>
<stop offset="1" stop-color="#8A4A9D"/>
</linearGradient>
<linearGradient id="paint3_linear" x1="39.1771" y1="20.0137" x2="39.1771" y2="27.7103" gradientUnits="userSpaceOnUse">
<stop stop-color="#F58879"/>
<stop offset="0.1194" stop-color="#F69079"/>
<stop offset="0.7128" stop-color="#FCB877"/>
<stop offset="1" stop-color="#FEC874"/>
</linearGradient>
</defs>
</svg>
