<svg width="17" height="18" viewBox="0 0 17 18" fill="none" xmlns="http://www.w3.org/2000/svg">
	<path d="M16.1486 3.16608H14.2107C14.2642 2.71627 14.2178 2.2602 14.0749 1.83036C13.932 1.40051 13.6961 1.00746 13.3839 0.679203C13.1698 0.464948 12.9155 0.294985 12.6357 0.179025C12.3558 0.0630652 12.0559 0.00338025 11.7529 0.00338025C11.45 0.00338025 11.15 0.0630652 10.8702 0.179025C10.5903 0.294985 10.3361 0.464948 10.1219 0.679203L8.24869 2.66225L6.369 0.659825C5.93788 0.236912 5.35806 0 4.75414 0C4.15022 0 3.5704 0.236912 3.13928 0.659825C2.81523 0.985631 2.56816 1.37979 2.41615 1.81345C2.26415 2.2471 2.21107 2.70926 2.2608 3.16608H0.645943C0.474628 3.16608 0.31033 3.23414 0.189192 3.35528C0.0680545 3.47641 0 3.64071 0 3.81203V6.3958C0 6.56711 0.0680545 6.73141 0.189192 6.85255C0.31033 6.97369 0.474628 7.04174 0.645943 7.04174H1.29189V16.7309C1.29189 16.9022 1.35994 17.0665 1.48108 17.1876C1.60222 17.3088 1.76651 17.3768 1.93783 17.3768H14.8567C15.028 17.3768 15.1923 17.3088 15.3134 17.1876C15.4346 17.0665 15.5026 16.9022 15.5026 16.7309V7.04174H16.1486C16.3199 7.04174 16.4842 6.97369 16.6053 6.85255C16.7265 6.73141 16.7945 6.56711 16.7945 6.3958V3.81203C16.7945 3.64071 16.7265 3.47641 16.6053 3.35528C16.4842 3.23414 16.3199 3.16608 16.1486 3.16608ZM11.0133 1.59644C11.1069 1.5025 11.2182 1.42796 11.3407 1.3771C11.4632 1.32624 11.5945 1.30006 11.7271 1.30006C11.8597 1.30006 11.991 1.32624 12.1135 1.3771C12.236 1.42796 12.3472 1.5025 12.4409 1.59644C12.6332 1.80435 12.7724 2.05566 12.8466 2.32896C12.9208 2.60226 12.9279 2.88946 12.8672 3.16608H9.53412L11.0133 1.59644ZM3.99839 1.59644C4.18692 1.41064 4.44099 1.30649 4.70569 1.30649C4.9704 1.30649 5.22447 1.41064 5.413 1.59644L6.90513 3.16608H3.57206C3.51136 2.88946 3.51842 2.60226 3.59265 2.32896C3.66688 2.05566 3.80608 1.80435 3.99839 1.59644ZM1.29189 4.45797H7.75132V5.74986H1.29189V4.45797ZM2.58377 7.04174H7.75132V16.0849H2.58377V7.04174ZM14.2107 16.0849H9.0432V7.04174H14.2107V16.0849ZM15.5026 5.74986H9.0432V4.45797H15.5026V5.74986Z" fill="url(#paint0_linear_741_727)"/>
	<defs>
		<linearGradient id="paint0_linear_741_727" x1="0" y1="8.69536" x2="16.7945" y2="8.69536" gradientUnits="userSpaceOnUse">
			<stop stop-color="#F2551C"/>
			<stop offset="1" stop-color="#FFD432"/>
		</linearGradient>
	</defs>
</svg>