<svg width="25" height="25" viewBox="0 0 25 25" fill="none" xmlns="http://www.w3.org/2000/svg">
<path d="M12.1934 2.35654C15.3975 2.35654 15.777 2.36856 17.0425 2.42608C18.2127 2.47932 18.848 2.67507 19.2704 2.83905C19.8302 3.05712 20.2303 3.31641 20.6501 3.73624C21.07 4.15607 21.3301 4.55616 21.5482 5.11594C21.7121 5.53834 21.9079 6.17453 21.9611 7.34388C22.0186 8.60939 22.0307 8.98887 22.0307 12.193C22.0307 15.3971 22.0186 15.7766 21.9611 17.0421C21.9079 18.2123 21.7121 18.8476 21.5482 19.27C21.3301 19.8298 21.0708 20.2299 20.651 20.6497C20.2311 21.0696 19.8311 21.3297 19.2713 21.5478C18.8489 21.7118 18.2127 21.9075 17.0433 21.9607C15.7778 22.0183 15.3983 22.0303 12.1942 22.0303C8.99011 22.0303 8.61062 22.0183 7.34511 21.9607C6.1749 21.9075 5.53957 21.7118 5.11716 21.5478C4.55739 21.3297 4.15731 21.0704 3.73747 20.6506C3.31764 20.2308 3.05749 19.8307 2.83942 19.2709C2.67544 18.8485 2.4797 18.2123 2.42647 17.043C2.36894 15.7774 2.35692 15.398 2.35692 12.1938C2.35692 8.98972 2.36894 8.61024 2.42647 7.34474C2.4797 6.17453 2.67544 5.5392 2.83942 5.11679C3.05749 4.55702 3.31679 4.15693 3.73662 3.7371C4.15645 3.31726 4.55653 3.05712 5.11631 2.83905C5.53872 2.67507 6.17491 2.47932 7.34426 2.42608C8.60977 2.36856 8.98924 2.35654 12.1934 2.35654ZM12.1934 0.193848C8.93429 0.193848 8.52563 0.207584 7.24638 0.265966C5.96886 0.324347 5.09656 0.526967 4.33331 0.824027C3.5443 1.13053 2.87463 1.54092 2.20753 2.20801C1.54044 2.87511 1.13005 3.54392 0.823545 4.33379C0.526486 5.09704 0.323872 5.96934 0.265491 7.24686C0.207109 8.52697 0.193359 8.93563 0.193359 12.1938C0.193359 15.4529 0.207109 15.8616 0.265491 17.1408C0.323872 18.4184 0.526486 19.2906 0.823545 20.0539C1.13005 20.8429 1.54044 21.5126 2.20753 22.1797C2.87463 22.8468 3.54344 23.2572 4.33331 23.5637C5.09656 23.8607 5.96886 24.0633 7.24638 24.1217C8.52649 24.1801 8.93515 24.1938 12.1934 24.1938C15.4524 24.1938 15.8611 24.1801 17.1404 24.1217C18.4179 24.0633 19.2902 23.8607 20.0534 23.5637C20.8424 23.2572 21.5121 22.8468 22.1792 22.1797C22.8463 21.5126 23.2567 20.8438 23.5632 20.0539C23.8602 19.2906 24.0629 18.4184 24.1212 17.1408C24.1796 15.8607 24.1934 15.4521 24.1934 12.1938C24.1934 8.93478 24.1796 8.52611 24.1212 7.24686C24.0629 5.96934 23.8602 5.09704 23.5632 4.33379C23.2567 3.54478 22.8463 2.87511 22.1792 2.20801C21.5121 1.54092 20.8433 1.13053 20.0534 0.824027C19.2902 0.526967 18.4179 0.324347 17.1404 0.265966C15.8611 0.208443 15.4524 0.193848 12.1934 0.193848Z" fill="white"/>
<path d="M12.1931 6.03198C8.78978 6.03198 6.03125 8.79051 6.03125 12.1938C6.03125 15.5971 8.78978 18.3557 12.1931 18.3557C15.5964 18.3557 18.3549 15.5971 18.3549 12.1938C18.3549 8.79051 15.5964 6.03198 12.1931 6.03198ZM12.1931 16.1938C9.98403 16.1938 8.19309 14.4029 8.19309 12.1938C8.19309 9.98476 9.98403 8.19382 12.1931 8.19382C14.4021 8.19382 16.1931 9.98476 16.1931 12.1938C16.1931 14.4029 14.4021 16.1938 12.1931 16.1938Z" fill="white"/>
<path d="M18.598 7.22822C19.3932 7.22822 20.0378 6.5836 20.0378 5.78843C20.0378 4.99325 19.3932 4.34863 18.598 4.34863C17.8028 4.34863 17.1582 4.99325 17.1582 5.78843C17.1582 6.5836 17.8028 7.22822 18.598 7.22822Z" fill="white"/>
</svg>
