<svg width="33" height="33" viewBox="0 0 33 33" fill="none" xmlns="http://www.w3.org/2000/svg">
<path d="M29.0693 24.6703L22.896 21.4797C22.0289 21.0288 20.9538 21.2716 20.3642 22.0346L18.1099 24.9478C15.8903 23.7686 14.2256 22.6241 12.2834 20.682C10.2025 18.6011 9.09272 16.9017 7.98291 14.7514L10.8615 12.4971C11.6245 11.9076 11.8672 10.8324 11.4164 9.9654L8.22568 3.82676C7.67078 2.75164 6.28352 2.40482 5.27776 3.06377L1.35873 5.69957C0.45701 6.32384 -0.0631996 7.36427 0.00616342 8.4394C0.0755264 9.54921 0.21424 10.9712 0.491692 11.9422C1.63618 16.3468 4.37603 20.8901 8.26036 24.7397C12.11 28.5894 16.6533 31.3292 21.0578 32.5084C22.0289 32.7511 23.4508 32.8899 24.5953 32.9939C25.7051 33.0633 26.7803 32.543 27.3699 31.6066L29.9363 27.6183C30.4912 26.5778 30.1097 25.2252 29.0693 24.6703Z" fill="#FE6000"/>
<path d="M16.5831 12.948C17.3461 13.1561 18.1091 13.5723 18.6987 14.1965C19.3229 14.8208 19.7391 15.5491 19.9472 16.3121C20.1206 16.9364 20.7102 17.3526 21.3692 17.3179H21.5079C22.4096 17.2832 23.0685 16.4161 22.8258 15.5491C22.479 14.3006 21.82 13.0867 20.8143 12.1156C19.8085 11.1099 18.6293 10.4509 17.3808 10.1041C16.5137 9.86133 15.6467 10.5203 15.612 11.422V11.5607C15.5427 12.185 15.9588 12.7746 16.5831 12.948Z" fill="#FE6000"/>
<path d="M17 7.95386C18.9075 8.30067 20.7456 9.20239 22.2022 10.659C23.6935 12.1503 24.5952 13.9538 24.9074 15.8612C25.0461 16.5549 25.6704 17.0751 26.3987 17.0404H26.5027C27.3697 17.0057 27.994 16.208 27.8206 15.3757C27.3698 12.8786 26.1906 10.4856 24.2831 8.54343C22.3409 6.60126 19.9826 5.42211 17.4508 5.00593C16.6185 4.8672 15.8208 5.49147 15.7861 6.32382V6.42786C15.7861 7.19086 16.3064 7.81513 17 7.95386Z" fill="#FE6000"/>
<path d="M32.8851 15.1677C32.3648 11.4568 30.7001 7.88459 27.8562 5.04071C25.0124 2.19682 21.4402 0.532109 17.7292 0.0118867C16.8969 -0.0921579 16.1339 0.497436 16.0992 1.36447V1.50319C16.0645 2.26618 16.6194 2.89044 17.3477 2.99449C20.4344 3.41067 23.3823 4.83262 25.7407 7.19096C28.099 9.54931 29.4863 12.5319 29.9371 15.5839C30.0412 16.3122 30.6654 16.8671 31.4284 16.8324H31.5672C32.3648 16.7631 32.9891 16.0001 32.8851 15.1677Z" fill="#FE6000"/>
</svg>
