<svg width="17" height="17" viewBox="0 0 17 17" fill="none" xmlns="http://www.w3.org/2000/svg">
<path d="M15.9688 15.0688L12.2875 11.3875C13.2 10.275 13.75 8.85 13.75 7.29688C13.75 3.73438 10.8594 0.84375 7.29688 0.84375C3.73125 0.84375 0.84375 3.73438 0.84375 7.29688C0.84375 10.8594 3.73125 13.75 7.29688 13.75C8.85 13.75 10.2719 13.2031 11.3844 12.2906L15.0656 15.9688C15.3156 16.2188 15.7188 16.2188 15.9688 15.9688C16.2188 15.7219 16.2188 15.3156 15.9688 15.0688ZM7.29688 12.4656C4.44375 12.4656 2.125 10.1469 2.125 7.29688C2.125 4.44688 4.44375 2.125 7.29688 2.125C10.1469 2.125 12.4688 4.44688 12.4688 7.29688C12.4688 10.1469 10.1469 12.4656 7.29688 12.4656Z" fill="white"/>
</svg>
