<svg width="140" height="50" viewBox="0 0 140 50" fill="none" xmlns="http://www.w3.org/2000/svg">
<path d="M13.4749 30.0721C11.0566 30.0866 8.64821 29.7959 6.32262 29.209C4.132 28.6504 2.05463 27.7898 0.166992 26.659L3.82645 21.0854C5.33666 21.9479 6.97741 22.6168 8.69978 23.0722C10.2329 23.4874 11.8255 23.7059 13.4288 23.7209C14.4701 23.7209 14.9967 23.4577 14.9967 22.9432V22.8551C14.9738 22.715 14.9086 22.5829 14.8081 22.4727C14.7076 22.3625 14.5755 22.2783 14.4255 22.2288C13.6139 21.9082 12.7703 21.6553 11.9055 21.4735C10.2583 21.099 8.78556 20.7042 7.4874 20.2893C6.30424 19.9253 5.18461 19.4164 4.16115 18.7775C3.27061 18.2175 2.54515 17.4766 2.04581 16.617C1.52387 15.6541 1.26889 14.595 1.30202 13.5275V13.4367C1.27621 12.2457 1.55221 11.0646 2.10978 9.98018C2.63601 8.98514 3.42721 8.11782 4.41554 7.45257C5.49205 6.74135 6.70877 6.21352 8.00359 5.89601C9.50419 5.52421 11.0568 5.34258 12.6151 5.35653C14.724 5.35142 16.8246 5.59119 18.863 6.06969C20.7651 6.50197 22.5854 7.17845 24.2659 8.07757L20.8444 13.9104C19.4684 13.2269 18.0091 12.6835 16.4947 12.2907C15.2244 11.9352 13.9039 11.7394 12.572 11.7091C11.5589 11.7091 11.0517 11.9525 11.0517 12.442V12.5302C11.0802 12.6769 11.1527 12.8142 11.2615 12.9278C11.3703 13.0414 11.5115 13.1272 11.6705 13.1762C12.4936 13.5019 13.3539 13.7485 14.2366 13.9117C15.8828 14.2863 17.356 14.681 18.6562 15.0959C19.8373 15.4588 20.9505 15.9759 21.9586 16.6301C22.8279 17.1988 23.5358 17.9384 24.0264 18.7906C24.5319 19.7497 24.7764 20.8001 24.7404 21.8577V21.9446C24.8114 23.0823 24.5792 24.2189 24.0624 25.2627C23.5456 26.3065 22.7587 27.2283 21.7652 27.9537C19.3585 29.4804 16.4313 30.2284 13.4749 30.0721ZM57.5074 5.91706H68.3445V29.5103H57.5074V5.91706ZM71.1382 5.91706H81.9738L81.9589 8.81177C83.7038 7.25915 85.2598 5.91706 90.1004 5.91706V15.7683H88.961C87.9797 15.7456 87.0048 15.9138 86.1052 16.2609C85.2055 16.6081 84.403 17.1258 83.7544 17.7775C82.4022 19.3521 81.7654 21.3175 81.9693 23.2866V29.5103H71.1337V5.921L71.1382 5.91706ZM92.2411 5.95916H103.077V29.5537H92.2411V5.95916ZM119.568 0H108.732V5.921H105.69V15.7722H108.732V29.5103H119.568V15.7696H125.557V5.921H119.568V0ZM140 29.5537H129.164V19.7025H140V29.555V29.5537ZM55.0946 12.5933C54.5771 11.1937 53.7734 9.89006 52.7234 8.7473C51.7532 7.69941 50.541 6.84705 49.1681 6.24732C47.8114 5.6573 46.3182 5.35415 44.8065 5.36179C43.3079 5.35512 41.8292 5.66519 40.4935 6.2662C39.1579 6.86721 38.0038 7.74176 37.1275 8.81703V5.921H26.2905V35.4787H37.1275V26.8314C38.0634 27.8545 39.2486 28.6775 40.5945 29.2386C41.9404 29.7998 43.4123 30.0847 44.9002 30.0721C46.3892 30.078 47.859 29.7751 49.1919 29.1879C50.5563 28.5817 51.7541 27.7185 52.7011 26.659C53.7458 25.4815 54.5484 24.1507 55.0723 22.7274C55.6774 21.0825 55.9744 19.3611 55.9514 17.6314V17.5406C55.9735 15.8612 55.6841 14.1899 55.0946 12.5933ZM41.1113 21.9932C40.1489 22.0168 39.2004 21.7859 38.3872 21.3301C37.5739 20.8743 36.9329 20.2142 36.5461 19.4344C36.1592 18.6546 36.0442 17.7904 36.2156 16.9525C36.3871 16.1145 36.8372 15.3408 37.5085 14.7304C38.1798 14.1199 39.0417 13.7004 39.9839 13.5256C40.9262 13.3508 41.906 13.4285 42.798 13.7489C43.6901 14.0693 44.4538 14.6178 44.9915 15.3242C45.5292 16.0305 45.8164 16.8627 45.8165 17.7143C45.834 18.8325 45.3491 19.9111 44.4684 20.7134C43.5876 21.5156 42.3829 21.9759 41.1187 21.9932H41.1113ZM57.5015 40.2628H66.3065V42.9944H61.0182V44.2102H65.9272V46.697H61.0182V49.8233H57.5015V40.2628ZM67.2422 40.2628H70.7574V49.8246H67.2422V40.2628ZM75.174 42.9681H72.0798V40.2628H81.7863V42.9681H78.6907V49.8246H75.174V42.9654V42.9681ZM83.0924 40.2628H86.383L90.1242 44.4838V40.2628H93.6097V49.8246H90.4857L86.5808 45.4115V49.8246H83.0939V40.2628H83.0924ZM95.5033 40.2628H104.473V42.8852H98.959V43.8549H104.099V46.1641H98.959V47.2009H104.548V49.8233H95.5033V40.2628ZM110.723 49.9996C109.706 50.0076 108.695 49.8717 107.727 49.597C106.84 49.3487 106.023 48.9365 105.33 48.3878L107.208 46.3522C107.743 46.7356 108.354 47.0274 109.011 47.2128C109.618 47.3842 110.252 47.473 110.889 47.4759C111.129 47.4928 111.369 47.4557 111.587 47.368C111.65 47.3406 111.704 47.2978 111.741 47.2448C111.778 47.1917 111.797 47.1304 111.797 47.068V47.0338C111.789 46.9572 111.755 46.8843 111.701 46.8242C111.646 46.7641 111.573 46.7195 111.49 46.6957C111.121 46.561 110.735 46.4643 110.341 46.4075C109.745 46.2979 109.182 46.1702 108.651 46.0246C108.153 45.8954 107.678 45.7073 107.237 45.4654C106.845 45.2501 106.514 44.9579 106.269 44.6115C106.015 44.2246 105.89 43.7821 105.909 43.3352V43.3062C105.907 42.8688 106.008 42.4358 106.207 42.0352C106.404 41.642 106.696 41.292 107.063 41.0102C107.473 40.7028 107.948 40.4711 108.46 40.3286C109.08 40.1562 109.727 40.0731 110.376 40.0826C111.283 40.0684 112.186 40.1789 113.054 40.4102C113.806 40.622 114.506 40.9557 115.12 41.3944L113.406 43.5523C112.929 43.2348 112.393 42.9923 111.822 42.8352C111.313 42.6914 110.783 42.6156 110.248 42.6102C110.048 42.5971 109.848 42.635 109.671 42.7194C109.614 42.7481 109.566 42.7898 109.533 42.8402C109.5 42.8906 109.482 42.9479 109.482 43.0062V43.0352C109.482 43.0985 109.503 43.1605 109.543 43.2128C109.6 43.2805 109.674 43.3348 109.76 43.3707C109.897 43.4315 110.041 43.4796 110.189 43.5141C110.369 43.5602 110.599 43.6062 110.879 43.6457C111.499 43.742 112.111 43.8739 112.712 44.0404C113.216 44.1746 113.695 44.3751 114.132 44.6352C114.509 44.8577 114.823 45.1545 115.049 45.5023C115.275 45.8801 115.387 46.3037 115.372 46.7312V46.7628C115.38 47.23 115.267 47.6927 115.041 48.1154C114.823 48.5126 114.504 48.8602 114.11 49.1312C113.672 49.4251 113.175 49.6429 112.645 49.7733C112.02 49.9301 111.372 50.0063 110.723 49.9996ZM121.166 49.9996C120.149 50.0076 119.137 49.8717 118.168 49.597C117.282 49.3483 116.465 48.9362 115.772 48.3878L117.651 46.3522C118.186 46.7358 118.797 47.0277 119.453 47.2128C120.061 47.3841 120.694 47.4728 121.331 47.4759C121.567 47.4919 121.805 47.4548 122.021 47.368C122.085 47.3407 122.138 47.2981 122.176 47.245C122.213 47.1919 122.233 47.1306 122.232 47.068V47.0338C122.224 46.957 122.19 46.884 122.136 46.8239C122.081 46.7638 122.007 46.7192 121.924 46.6957C121.555 46.5608 121.169 46.4641 120.774 46.4075C120.179 46.2979 119.616 46.1702 119.085 46.0246C118.587 45.8951 118.112 45.707 117.671 45.4654C117.28 45.2493 116.948 44.9573 116.703 44.6115C116.45 44.2243 116.325 43.782 116.343 43.3352V43.3062C116.34 42.8687 116.441 42.4356 116.64 42.0352C116.837 41.642 117.13 41.292 117.497 41.0102C117.906 40.7028 118.381 40.4711 118.893 40.3286C119.513 40.1563 120.16 40.0733 120.81 40.0826C121.717 40.0685 122.62 40.179 123.488 40.4102C124.239 40.6223 124.939 40.956 125.553 41.3944L123.84 43.5523C123.362 43.2345 122.826 42.9919 122.255 42.8352C121.747 42.6915 121.218 42.6157 120.685 42.6102C120.485 42.5973 120.284 42.6352 120.107 42.7194C120.049 42.7484 120.002 42.7901 119.969 42.8405C119.936 42.8909 119.919 42.948 119.919 43.0062V43.0352C119.919 43.0983 119.939 43.1601 119.979 43.2128C120.036 43.28 120.11 43.3342 120.196 43.3707C120.333 43.4313 120.476 43.4794 120.624 43.5141C120.806 43.5602 121.035 43.6062 121.316 43.6457C121.936 43.7423 122.548 43.8742 123.149 44.0404C123.653 44.1752 124.132 44.3756 124.569 44.6352C124.946 44.8581 125.26 45.1548 125.486 45.5023C125.712 45.8803 125.823 46.3038 125.808 46.7312V46.7628C125.817 47.23 125.704 47.6927 125.478 48.1154C125.26 48.513 124.941 48.8606 124.545 49.1312C124.108 49.4256 123.61 49.6435 123.08 49.7733C122.458 49.9296 121.813 50.0058 121.166 49.9996Z" fill="white"/>
</svg>
