<svg version="1.1" id="Слой_1" xmlns="http://www.w3.org/2000/svg" xmlns:xlink="http://www.w3.org/1999/xlink" x="0px" y="0px"
	 width="28px" height="32.25px" viewBox="0 0 28 32.25" enable-background="new 0 0 28 32.25" xml:space="preserve">
<g>
	<path fill="#FFFFFF" d="M28,16.129c0,2.625,0,5.25,0,7.875c0,0.031-0.001,0.063-0.006,0.096c-0.014,0.089-0.061,0.146-0.137,0.189
		c-0.32,0.185-0.64,0.371-0.959,0.556c-0.336,0.194-0.672,0.39-1.008,0.584c-0.521,0.301-1.043,0.601-1.563,0.901
		c-0.333,0.192-0.665,0.385-0.997,0.576c-0.453,0.262-0.906,0.521-1.357,0.782c-0.229,0.131-0.453,0.265-0.682,0.396
		c-0.344,0.195-0.686,0.396-1.029,0.594c-0.339,0.195-0.678,0.39-1.016,0.586c-0.441,0.256-0.885,0.509-1.326,0.764
		c-0.238,0.137-0.475,0.276-0.713,0.414c-0.508,0.294-1.016,0.588-1.523,0.88c-0.336,0.192-0.67,0.386-1.004,0.579
		c-0.176,0.102-0.353,0.203-0.527,0.305c-0.1,0.06-0.201,0.06-0.303,0c-0.289-0.168-0.578-0.336-0.867-0.502
		c-0.357-0.207-0.716-0.414-1.074-0.621c-0.336-0.193-0.673-0.389-1.01-0.582c-0.514-0.297-1.029-0.594-1.543-0.892
		c-0.335-0.192-0.67-0.386-1.004-0.58c-0.341-0.196-0.682-0.394-1.022-0.59c-0.343-0.198-0.687-0.396-1.029-0.595
		c-0.332-0.192-0.664-0.385-0.997-0.576c-0.342-0.198-0.686-0.396-1.028-0.594c-0.337-0.194-0.673-0.389-1.01-0.584
		c-0.345-0.198-0.69-0.397-1.036-0.598c-0.346-0.199-0.689-0.397-1.035-0.598C0.85,24.698,0.508,24.5,0.164,24.301
		c-0.008-0.004-0.017-0.01-0.025-0.014C0.042,24.241,0.008,24.157,0,24.058c0-0.017,0-0.035,0-0.052C0,18.754,0,13.502,0,8.25
		c0-0.03,0.001-0.06,0.004-0.089c0.01-0.094,0.062-0.156,0.143-0.203c0.32-0.184,0.639-0.37,0.958-0.555
		c0.328-0.191,0.655-0.381,0.983-0.57C2.439,6.63,2.791,6.427,3.143,6.224c0.335-0.193,0.669-0.387,1.004-0.579
		c0.338-0.193,0.674-0.388,1.01-0.583c0.35-0.202,0.699-0.403,1.049-0.605C6.543,4.261,6.882,4.065,7.221,3.87
		C7.56,3.675,7.899,3.48,8.237,3.283c0.338-0.197,0.678-0.391,1.018-0.586c0.336-0.194,0.672-0.391,1.01-0.584
		c0.339-0.194,0.678-0.391,1.016-0.586c0.348-0.201,0.695-0.4,1.042-0.602c0.34-0.198,0.682-0.394,1.022-0.59
		c0.168-0.097,0.335-0.192,0.502-0.29c0.105-0.061,0.209-0.06,0.314,0.002c0.287,0.167,0.573,0.333,0.86,0.5
		c0.363,0.211,0.729,0.421,1.092,0.632c0.32,0.185,0.641,0.369,0.96,0.553c0.352,0.203,0.702,0.407,1.055,0.609
		c0.339,0.196,0.679,0.391,1.017,0.586c0.351,0.202,0.698,0.404,1.049,0.605c0.33,0.19,0.66,0.381,0.99,0.572
		c0.516,0.297,1.029,0.594,1.545,0.891c0.33,0.19,0.66,0.381,0.989,0.572c0.347,0.2,0.694,0.401,1.041,0.602
		c0.341,0.195,0.679,0.391,1.017,0.586c0.342,0.197,0.683,0.394,1.022,0.59c0.337,0.194,0.675,0.389,1.011,0.583
		c0.02,0.011,0.039,0.023,0.059,0.034C27.959,8.013,27.994,8.095,28,8.196c0,0.022,0,0.044,0,0.067C28,10.885,28,13.507,28,16.129z"
		/>
	<path fill="#000000" d="M13.422,30.769c-0.127-0.075-0.24-0.142-0.354-0.207c-0.3-0.173-0.6-0.346-0.9-0.519c-0.41-0.237-0.818-0.475-1.229-0.711
		c-0.34-0.196-0.681-0.395-1.021-0.59c-0.463-0.269-0.928-0.535-1.391-0.802c-0.35-0.202-0.698-0.403-1.048-0.606
		c-0.368-0.213-0.737-0.426-1.105-0.639c-0.354-0.205-0.707-0.41-1.062-0.613c-0.336-0.19-0.67-0.385-1.004-0.578
		c-0.516-0.301-1.033-0.598-1.549-0.896c-0.335-0.193-0.67-0.386-1.004-0.578c-0.322-0.187-0.643-0.373-0.966-0.557
		c-0.044-0.025-0.06-0.055-0.06-0.105c0.002-4.834,0.002-9.67,0.002-14.505c0-0.019,0-0.039,0-0.061
		c0.033,0.001,0.055,0.02,0.076,0.033c0.299,0.172,0.596,0.345,0.894,0.518C1.958,9.5,2.216,9.65,2.473,9.795
		c0.43,0.241,0.855,0.49,1.281,0.736c0.342,0.197,0.683,0.393,1.023,0.591c0.334,0.194,0.668,0.387,1.003,0.58
		c0.199,0.115,0.403,0.223,0.599,0.344c0.266,0.165,0.539,0.315,0.808,0.473c0.471,0.274,0.944,0.544,1.415,0.817
		c0.422,0.244,0.844,0.49,1.266,0.734c0.337,0.194,0.674,0.388,1.01,0.582c0.342,0.197,0.682,0.396,1.023,0.591
		c0.346,0.198,0.69,0.397,1.035,0.597c0.146,0.085,0.291,0.169,0.438,0.252c0.034,0.019,0.056,0.04,0.047,0.082
		c-0.002,0.012,0,0.025,0,0.037c0,4.819,0,9.636,0,14.456C13.422,30.694,13.422,30.723,13.422,30.769z"/>
	<path fill="#000000" d="M1.161,7.706C1.395,7.57,1.619,7.441,1.844,7.312c0.084-0.049,0.168-0.097,0.251-0.145C2.5,6.933,2.905,6.697,3.31,6.463
		C3.647,6.269,3.983,6.074,4.32,5.88c0.345-0.199,0.69-0.398,1.036-0.598c0.334-0.193,0.668-0.387,1.003-0.58
		c0.356-0.206,0.712-0.411,1.067-0.617c0.335-0.193,0.67-0.386,1.004-0.579C8.756,3.318,9.082,3.13,9.408,2.942
		c0.352-0.203,0.703-0.406,1.056-0.609c0.334-0.193,0.668-0.386,1.002-0.58c0.346-0.199,0.691-0.399,1.036-0.598
		c0.339-0.196,0.677-0.392,1.017-0.587c0.094-0.055,0.189-0.108,0.283-0.163c0.028-0.018,0.056-0.02,0.087-0.001
		c0.211,0.125,0.423,0.248,0.637,0.37c0.461,0.267,0.922,0.532,1.383,0.798c0.23,0.134,0.461,0.27,0.692,0.402
		c0.343,0.195,0.683,0.394,1.022,0.591c0.341,0.197,0.684,0.392,1.022,0.59c0.314,0.183,0.63,0.363,0.946,0.545
		c0.363,0.21,0.729,0.421,1.093,0.632c0.519,0.3,1.038,0.599,1.558,0.898c0.32,0.186,0.642,0.374,0.963,0.558
		c0.529,0.303,1.058,0.607,1.582,0.914c0.334,0.195,0.67,0.386,1.005,0.579c0.198,0.113,0.396,0.227,0.594,0.34
		c0.008,0.005,0.015,0.012,0.026,0.021c-0.063,0.037-0.123,0.071-0.182,0.104c-0.352,0.199-0.703,0.398-1.054,0.597
		c-0.345,0.195-0.688,0.391-1.034,0.586c-0.34,0.193-0.68,0.385-1.021,0.578c-0.363,0.206-0.729,0.412-1.092,0.618
		c-0.334,0.189-0.668,0.378-1.002,0.567c-0.352,0.199-0.701,0.397-1.054,0.596c-0.342,0.194-0.685,0.388-1.026,0.582
		c-0.357,0.203-0.715,0.405-1.072,0.607c-0.348,0.197-0.693,0.394-1.041,0.59c-0.346,0.196-0.693,0.393-1.04,0.589
		c-0.341,0.192-0.681,0.385-1.021,0.578c-0.354,0.2-0.707,0.4-1.061,0.601c-0.105,0.061-0.105,0.061-0.212,0
		c-0.308-0.179-0.616-0.358-0.925-0.537c-0.338-0.196-0.677-0.392-1.016-0.587c-0.438-0.252-0.876-0.503-1.313-0.756
		c-0.239-0.138-0.479-0.28-0.72-0.417c-0.346-0.197-0.689-0.398-1.035-0.598c-0.337-0.194-0.675-0.387-1.01-0.583
		c-0.336-0.197-0.67-0.395-1.007-0.589c-0.344-0.197-0.687-0.396-1.029-0.594c-0.33-0.19-0.661-0.38-0.99-0.572
		C4.104,9.397,3.748,9.193,3.395,8.989c-0.246-0.142-0.492-0.287-0.74-0.425C2.211,8.317,1.774,8.062,1.334,7.806
		C1.28,7.774,1.221,7.748,1.161,7.706z"/>
	<path fill="#000000" d="M26.971,9.066c0,0.029,0,0.057,0,0.084c0,4.791,0,9.581,0,14.372c0,0.012,0,0.025,0,0.037
		c0.006,0.036-0.008,0.059-0.041,0.076c-0.322,0.185-0.645,0.369-0.965,0.556c-0.104,0.06-0.205,0.122-0.308,0.181
		c-0.378,0.219-0.755,0.437-1.132,0.654c-0.336,0.194-0.674,0.389-1.01,0.583s-0.675,0.388-1.011,0.583
		c-0.351,0.202-0.698,0.404-1.049,0.605c-0.336,0.195-0.673,0.389-1.011,0.584s-0.678,0.391-1.016,0.586
		c-0.346,0.199-0.691,0.398-1.035,0.598c-0.33,0.191-0.66,0.382-0.99,0.573c-0.352,0.202-0.702,0.405-1.055,0.608
		c-0.334,0.193-0.67,0.387-1.004,0.58s-0.669,0.387-1.004,0.58c-0.016,0.008-0.03,0.026-0.054,0.02
		c-0.011-0.026-0.005-0.053-0.005-0.08c-0.001-4.842-0.001-9.686-0.002-14.528c0-0.056,0.014-0.088,0.065-0.116
		c0.257-0.143,0.513-0.29,0.769-0.435c0.348-0.197,0.693-0.393,1.041-0.589c0.338-0.191,0.676-0.383,1.014-0.575
		c0.354-0.2,0.707-0.4,1.061-0.6c0.348-0.196,0.693-0.393,1.041-0.589c0.342-0.194,0.685-0.388,1.026-0.582
		c0.351-0.199,0.702-0.397,1.054-0.596c0.34-0.193,0.681-0.385,1.021-0.578c0.361-0.205,0.725-0.41,1.085-0.615
		c0.319-0.18,0.64-0.36,0.957-0.541c0.369-0.208,0.735-0.417,1.104-0.625c0.34-0.193,0.681-0.386,1.021-0.578
		c0.127-0.072,0.255-0.144,0.382-0.215C26.936,9.073,26.947,9.061,26.971,9.066z"/>
	<path fill="#FFFFFF" d="M21.764,21.924c-0.322,0.023-0.632,0.086-0.935,0.181c-0.466,0.146-0.933,0.284-1.407,0.399
		c-0.41,0.102-0.822,0.201-1.24,0.269c-0.283,0.045-0.566,0.06-0.852,0.047c-0.229-0.009-0.455-0.036-0.674-0.104
		c-0.449-0.141-0.779-0.42-0.994-0.838c-0.105-0.207-0.16-0.432-0.209-0.656c-0.057-0.256-0.07-0.516-0.063-0.776
		c0.004-0.155,0-0.313,0.014-0.468c0.021-0.277,0.068-0.551,0.123-0.823c0.07-0.346,0.176-0.68,0.293-1.012
		c0.084-0.235,0.188-0.462,0.297-0.688c0.25-0.518,0.56-0.998,0.908-1.452c0.287-0.372,0.595-0.725,0.924-1.06
		c0.238-0.244,0.49-0.478,0.751-0.698c0.493-0.416,1.009-0.802,1.554-1.149c0.387-0.247,0.785-0.471,1.191-0.682
		c0.42-0.219,0.849-0.417,1.289-0.589c0.285-0.112,0.572-0.22,0.865-0.309c0.401-0.122,0.805-0.236,1.217-0.308
		c0.494-0.086,0.994-0.13,1.496-0.109c0.033,0.001,0.063,0.009,0.096,0.013c0.146,0.019,0.205,0.172,0.174,0.278
		c-0.037,0.124-0.087,0.242-0.135,0.362c-0.166,0.424-0.336,0.847-0.504,1.27c-0.189,0.483-0.381,0.967-0.572,1.451
		c-0.131,0.333-0.262,0.668-0.391,1.002c-0.02,0.046-0.041,0.09-0.08,0.123c-0.053,0.045-0.115,0.055-0.18,0.057
		c-0.119,0.005-0.238,0.009-0.357,0.013c-0.213,0.007-0.424,0.032-0.635,0.061c-0.258,0.035-0.515,0.082-0.767,0.146
		c-0.442,0.112-0.877,0.246-1.293,0.434c-0.203,0.091-0.401,0.191-0.601,0.292c-0.153,0.079-0.297,0.171-0.428,0.281
		c-0.086,0.07-0.158,0.15-0.211,0.248c-0.025,0.051-0.027,0.058-0.021,0.131c0.096-0.004,0.19-0.02,0.284-0.035
		c0.287-0.049,0.565-0.125,0.841-0.217c0.396-0.133,0.797-0.237,1.2-0.342c0.218-0.057,0.436-0.115,0.656-0.159
		c0.283-0.057,0.566-0.124,0.855-0.149c0.459-0.04,0.913-0.025,1.352,0.129c0.383,0.134,0.672,0.386,0.87,0.739
		c0.106,0.188,0.171,0.395,0.22,0.605c0.062,0.254,0.092,0.512,0.09,0.771c-0.002,0.117-0.002,0.232,0,0.35
		c0.007,0.396-0.051,0.785-0.139,1.17c-0.099,0.432-0.234,0.85-0.408,1.256c-0.086,0.201-0.182,0.396-0.28,0.588
		c-0.185,0.361-0.396,0.705-0.632,1.033c-0.19,0.263-0.402,0.51-0.615,0.754c-0.135,0.154-0.271,0.306-0.411,0.451
		c-0.252,0.26-0.513,0.51-0.785,0.75c-0.297,0.262-0.608,0.508-0.93,0.74c-0.318,0.229-0.647,0.438-0.992,0.629
		c-0.342,0.188-0.687,0.377-1.032,0.555c-0.365,0.188-0.738,0.358-1.119,0.515c-0.371,0.151-0.748,0.29-1.132,0.405
		c-0.452,0.136-0.911,0.254-1.381,0.322c-0.459,0.065-0.922,0.1-1.387,0.076c-0.181-0.009-0.361-0.02-0.539-0.055
		c-0.13-0.025-0.193-0.162-0.165-0.264c0.007-0.026,0.013-0.053,0.023-0.078c0.129-0.299,0.256-0.596,0.385-0.893
		c0.158-0.369,0.313-0.738,0.472-1.107c0.133-0.309,0.269-0.617,0.399-0.926c0.104-0.24,0.207-0.478,0.308-0.717
		c0.044-0.104,0.092-0.207,0.134-0.313c0.042-0.104,0.139-0.177,0.276-0.164c0.263,0.026,0.524,0.028,0.788,0.013
		c0.31-0.02,0.615-0.063,0.921-0.117c0.34-0.063,0.668-0.162,0.996-0.269c0.387-0.126,0.759-0.288,1.122-0.468
		c0.253-0.125,0.507-0.25,0.736-0.416c0.111-0.077,0.209-0.168,0.291-0.274C21.734,22.086,21.766,22.012,21.764,21.924z"/>
</g>
</svg>