<svg width="120" height="120" viewBox="0 0 120 120" fill="none" xmlns="http://www.w3.org/2000/svg">
<path d="M44.784 97.1383C38.2812 97.1823 31.8053 96.2987 25.552 94.5143C19.6616 92.8161 14.0757 90.2 9 86.7623L18.84 69.8183C22.9008 72.4404 27.3127 74.4739 31.944 75.8583C36.0665 77.1206 40.3488 77.7847 44.66 77.8303C47.46 77.8303 48.876 77.0303 48.876 75.4663V75.1983C48.8142 74.7724 48.639 74.3708 48.3688 74.0359C48.0986 73.7009 47.7432 73.4447 47.34 73.2943C45.1577 72.3197 42.8892 71.5511 40.564 70.9983C36.1347 69.8596 32.1747 68.6596 28.684 67.3983C25.5026 66.2916 22.492 64.7446 19.74 62.8023C17.3454 61.1 15.3947 58.8475 14.052 56.2343C12.6485 53.307 11.9629 50.0874 12.052 46.8423V46.5663C11.9826 42.9454 12.7248 39.3549 14.224 36.0583C15.639 33.0333 17.7665 30.3967 20.424 28.3743C23.3187 26.2122 26.5903 24.6075 30.072 23.6423C34.107 22.512 38.2819 21.9598 42.472 22.0023C48.1427 21.9867 53.791 22.7156 59.272 24.1703C64.3868 25.4844 69.2815 27.5409 73.8 30.2743L64.6 48.0063C60.8998 45.9284 56.9761 44.2766 52.904 43.0823C49.4882 42.0015 45.9375 41.4064 42.356 41.3143C39.632 41.3143 38.268 42.0543 38.268 43.5423V43.8103C38.3448 44.2564 38.5397 44.6737 38.8323 45.0191C39.1249 45.3644 39.5046 45.6252 39.932 45.7743C42.1454 46.7644 44.4586 47.514 46.832 48.0103C51.2587 49.1489 55.22 50.3489 58.716 51.6103C61.892 52.7134 64.8852 54.2854 67.596 56.2743C69.9334 58.003 71.8369 60.2515 73.156 62.8423C74.5152 65.7577 75.1727 68.951 75.076 72.1663V72.4303C75.267 75.8891 74.6425 79.3444 73.2529 82.5176C71.8633 85.6908 69.7474 88.493 67.076 90.6983C60.6045 95.3394 52.7335 97.6132 44.784 97.1383ZM113 95.5623H83.864V65.6143H113V95.5623Z" fill="#090909"/>
</svg>
