<svg width="143" height="46" viewBox="0 0 143 46" fill="none" xmlns="http://www.w3.org/2000/svg">
<path d="M141.812 39.5548H141.79V40.0548C141.79 42.6234 139.707 44.7264 137.118 44.7264H5.1716C2.5835 44.7264 0.5 42.6234 0.5 40.0548V5.80881C0.5 3.2193 2.5821 1.13721 5.1716 1.13721H137.141C139.709 1.13721 141.812 3.22071 141.812 5.80881V39.5548Z" stroke="black"/>
<path d="M40.0065 26.5282C39.3797 27.8938 39.0886 28.5207 38.305 29.7296C37.1856 31.4311 35.6185 33.5356 33.6931 33.5356C31.9693 33.558 31.5215 32.4162 29.1932 32.4162C26.8648 32.4386 26.3723 33.5356 24.6484 33.5356C22.7007 33.5132 21.2007 31.6326 20.1037 29.9311C16.9917 25.2073 16.6783 19.6551 18.5813 16.6999C19.947 14.5954 22.0962 13.3865 24.1111 13.3865C26.1708 13.3865 27.4693 14.5059 29.1708 14.5059C30.8275 14.5059 31.8349 13.3865 34.208 13.3865C35.9991 13.3865 37.902 14.3715 39.2677 16.0506C34.8125 18.4909 35.5289 24.8267 40.0065 26.5282Z" fill="black"/>
<path d="M32.3945 11.4834C33.2677 10.364 33.9169 8.8192 33.6707 7.20728C32.2602 7.29683 30.6035 8.19234 29.6408 9.3789C28.7677 10.4311 28.0513 12.0207 28.32 13.5431C29.8647 13.5878 31.4543 12.6699 32.3945 11.4834Z" fill="black"/>
<path d="M52.6642 19.1821L48.209 32.2791H50.2463L51.5672 28.2492H55.8656L57.2313 32.2791H59.3358L54.8582 19.1821H52.6642ZM53.7164 21.3314C53.8731 21.9135 54.0298 22.5179 54.2313 23.1896L55.4403 26.6597H52.0373L53.2239 23.1672C53.403 22.5851 53.5597 21.9806 53.7164 21.3314Z" fill="black"/>
<path d="M65.1124 22.585C63.7691 22.585 62.6721 23.0999 61.9557 24.1073L61.8662 22.8088H60.0527V22.9656C60.0975 23.7715 60.1199 24.667 60.1199 25.9431V36.0401H62.1124V31.3386C62.7169 32.0774 63.702 32.5028 64.8214 32.5028C65.9855 32.5028 67.0378 32.055 67.8213 31.2267C68.6945 30.3088 69.1422 28.9879 69.1422 27.4207C69.1422 26.0327 68.7392 24.8238 68.0004 23.9506C67.284 23.0551 66.2542 22.585 65.1124 22.585ZM64.6199 24.2193C66.3885 24.2193 67.1721 25.8536 67.1721 27.4879C67.1721 29.57 66.1646 30.8685 64.5303 30.8685C63.4109 30.8685 62.4706 30.1073 62.202 29.0327C62.1572 28.8536 62.1348 28.6521 62.1348 28.3834V26.7939C62.1348 26.6596 62.1572 26.4805 62.202 26.3014C62.202 26.2566 62.2244 26.1894 62.2244 26.1446C62.5154 25.0029 63.5005 24.2193 64.6199 24.2193Z" fill="black"/>
<path d="M75.3205 22.585C73.9772 22.585 72.8802 23.0999 72.1638 24.1073L72.0742 22.8088H70.2832V22.9656C70.328 23.7715 70.3504 24.667 70.3504 25.9431V36.0401H72.3429V31.3386C72.9474 32.0774 73.9324 32.5028 75.0518 32.5028C76.216 32.5028 77.2682 32.055 78.0518 31.2267C78.9249 30.3088 79.3727 28.9879 79.3727 27.4207C79.3727 26.0327 78.9697 24.8238 78.2309 23.9506C77.4921 23.0551 76.4623 22.585 75.3205 22.585ZM74.828 24.2193C76.5966 24.2193 77.3802 25.8536 77.3802 27.4879C77.3802 29.57 76.3727 30.8685 74.7384 30.8685C73.6414 30.8685 72.6787 30.1073 72.4101 29.0327C72.3653 28.8536 72.3429 28.6521 72.3429 28.3834V26.7939C72.3429 26.6596 72.3653 26.4805 72.4101 26.3014C72.4101 26.2566 72.4324 26.1894 72.4324 26.1446C72.7235 25.0029 73.7086 24.2193 74.828 24.2193Z" fill="black"/>
<path d="M88.1046 24.7341C86.2464 24.0177 85.6644 23.458 85.6644 22.4057C85.6644 21.5326 86.3584 20.6371 87.9255 20.6371C89.2016 20.6371 90.03 21.0849 90.2539 21.2192L90.433 21.3311L90.9927 19.6744L90.8807 19.6073C90.5449 19.4058 89.6046 18.958 87.9927 18.958C85.4629 18.958 83.6942 20.458 83.6942 22.5848C83.6942 24.3087 84.7912 25.5177 87.1643 26.3684C88.8434 26.9953 89.4703 27.6445 89.4703 28.7415C89.4703 29.9952 88.5076 30.7564 86.9405 30.7564C85.933 30.7564 84.8808 30.4654 84.0748 29.9505L83.8957 29.8385L83.3584 31.54L83.4479 31.6072C84.1867 32.0997 85.5972 32.4579 86.8061 32.4579C90.2091 32.4579 91.418 30.3758 91.418 28.6072C91.4404 26.7938 90.4778 25.6744 88.1046 24.7341Z" fill="black"/>
<path d="M94.9997 20.5251L93.052 21.1296V22.7863H91.6191V24.3759H93.052V29.234C93.052 30.3982 93.2759 31.2266 93.746 31.7415C94.1938 32.234 94.8654 32.5027 95.6714 32.5027C96.4102 32.5027 96.9475 32.346 97.1938 32.2564L97.3057 32.2116L97.2161 30.6221L97.037 30.6893C96.7908 30.7564 96.5221 30.8012 96.1191 30.8012C95.3579 30.8012 95.0221 30.3087 95.0221 29.1669V24.3759H97.4176V22.7863H95.0221V20.5251H94.9997Z" fill="black"/>
<path d="M102.321 22.585C99.5445 22.585 97.6191 24.6446 97.6191 27.6222C97.6191 30.4879 99.4997 32.5028 102.186 32.5028H102.209C104.47 32.5028 106.91 30.9133 106.91 27.4431C106.91 26.0327 106.485 24.8238 105.656 23.9282C104.783 23.0551 103.641 22.585 102.321 22.585ZM102.253 24.1297C104.044 24.1297 104.85 25.876 104.85 27.4879C104.85 29.4804 103.753 30.9133 102.209 30.9133H102.186C100.686 30.9133 99.5893 29.5028 99.5893 27.5327C99.6117 25.8536 100.418 24.1297 102.253 24.1297Z" fill="black"/>
<path d="M112.955 22.6745L112.843 22.6521C112.664 22.6073 112.529 22.585 112.35 22.585C111.32 22.585 110.38 23.1894 109.865 24.1745L109.798 22.7865H108.029L108.052 22.9432C108.096 23.7267 108.119 24.5999 108.119 25.7864L108.096 32.2565H110.089V27.1969C110.089 26.9282 110.111 26.6596 110.134 26.4357C110.358 25.2267 111.186 24.4432 112.216 24.4432C112.417 24.4432 112.574 24.4655 112.753 24.4655L112.955 24.4879V22.6745Z" fill="black"/>
<path d="M117.41 22.5625C114.768 22.5625 112.933 24.667 112.933 27.6893C112.933 30.5998 114.768 32.4803 117.612 32.4803C119.112 32.4803 120.142 32.1445 120.746 31.8759L120.858 31.8311L120.477 30.3535L120.321 30.4207C119.783 30.6445 119.067 30.8684 117.836 30.8684C116.985 30.8684 114.992 30.5774 114.858 28.0028L121.261 28.0251L121.283 27.8908C121.328 27.6893 121.35 27.4207 121.35 27.0625C121.35 24.9804 120.321 22.5625 117.41 22.5625ZM117.276 24.0625C117.88 24.0625 118.373 24.2416 118.731 24.6222C119.291 25.2043 119.403 26.055 119.403 26.458H114.88C115.082 25.3162 115.798 24.0625 117.276 24.0625Z" fill="black"/>
<path d="M53.499 11.3086C53.499 11.0043 53.3875 10.7629 53.1644 10.5845C52.9441 10.4035 52.6332 10.313 52.2318 10.313C51.8959 10.313 51.6139 10.4061 51.3857 10.5924C51.16 10.776 51.0472 11.0043 51.0472 11.2771H50.2916C50.2916 10.9728 50.3743 10.6999 50.5396 10.4586C50.7075 10.2172 50.941 10.0296 51.2401 9.8958C51.5391 9.75938 51.8697 9.69116 52.2318 9.69116C52.8719 9.69116 53.3691 9.83546 53.7233 10.1241C54.0775 10.41 54.2545 10.8088 54.2545 11.3204C54.2545 11.5854 54.1732 11.8268 54.0106 12.0445C53.8479 12.2623 53.621 12.4341 53.3297 12.56C54.004 12.7857 54.3411 13.233 54.3411 13.902C54.3411 14.4162 54.1496 14.8242 53.7666 15.1259C53.3835 15.4276 52.8719 15.5785 52.2318 15.5785C51.8513 15.5785 51.505 15.5116 51.1928 15.3778C50.8832 15.2414 50.6419 15.0485 50.4687 14.7993C50.2956 14.55 50.209 14.2536 50.209 13.9099H50.9646C50.9646 14.2116 51.0839 14.4635 51.3227 14.6655C51.5614 14.8649 51.8645 14.9646 52.2318 14.9646C52.6437 14.9646 52.9716 14.8688 53.2156 14.6773C53.4622 14.4858 53.5855 14.2326 53.5855 13.9178C53.5855 13.2461 53.1697 12.9037 52.338 12.8906H51.6297V12.2688H52.3341C52.7171 12.261 53.007 12.1744 53.2038 12.0091C53.4006 11.8438 53.499 11.6103 53.499 11.3086Z" fill="black"/>
<path d="M57.8593 15.4998C57.8174 15.4158 57.7833 15.2663 57.757 15.0511C57.4186 15.4027 57.0146 15.5785 56.5449 15.5785C56.1252 15.5785 55.7802 15.4604 55.5099 15.2243C55.2423 14.9856 55.1085 14.6838 55.1085 14.3192C55.1085 13.8758 55.2764 13.5321 55.6123 13.2881C55.9507 13.0415 56.4256 12.9182 57.0369 12.9182H57.7452V12.5837C57.7452 12.3292 57.6691 12.1272 57.517 11.9776C57.3648 11.8254 57.1405 11.7494 56.844 11.7494C56.5843 11.7494 56.3665 11.815 56.1908 11.9461C56.015 12.0773 55.9271 12.236 55.9271 12.4223H55.1951C55.1951 12.2098 55.2699 12.0052 55.4194 11.8084C55.5716 11.609 55.7762 11.4516 56.0333 11.3361C56.2931 11.2207 56.5777 11.163 56.8873 11.163C57.3779 11.163 57.7623 11.2863 58.0404 11.5329C58.3185 11.7769 58.4628 12.114 58.4733 12.5443V14.5041C58.4733 14.895 58.5231 15.2059 58.6228 15.4368V15.4998H57.8593ZM56.6512 14.9449C56.8794 14.9449 57.0959 14.8859 57.3005 14.7678C57.5052 14.6497 57.6534 14.4963 57.7452 14.3074V13.4337H57.1746C56.2826 13.4337 55.8366 13.6947 55.8366 14.2168C55.8366 14.4451 55.9127 14.6235 56.0648 14.7521C56.217 14.8806 56.4124 14.9449 56.6512 14.9449Z" fill="black"/>
<path d="M62.3654 11.8438H60.4016V15.4998H59.6696V11.2417H62.3654V11.8438Z" fill="black"/>
<path d="M66.5959 13.418C66.5959 14.066 66.4476 14.5881 66.1512 14.9842C65.8547 15.3804 65.4533 15.5785 64.947 15.5785C64.4301 15.5785 64.0235 15.4145 63.727 15.0866V17.1369H62.9989V11.2417H63.664L63.6994 11.7139C63.9959 11.3466 64.4078 11.163 64.9352 11.163C65.4467 11.163 65.8508 11.3558 66.1472 11.7415C66.4463 12.1272 66.5959 12.6637 66.5959 13.3511V13.418ZM65.8678 13.3353C65.8678 12.8552 65.7655 12.4761 65.5609 12.198C65.3562 11.9199 65.0755 11.7808 64.7187 11.7808C64.2779 11.7808 63.9474 11.9763 63.727 12.3672V14.4018C63.9447 14.7901 64.2779 14.9842 64.7266 14.9842C65.0755 14.9842 65.3523 14.8465 65.5569 14.571C65.7642 14.2929 65.8678 13.881 65.8678 13.3353Z" fill="black"/>
<path d="M68.8705 14.4333L69.8622 11.2417H70.6414L68.9296 16.157C68.6646 16.8653 68.2435 17.2195 67.6663 17.2195L67.5286 17.2077L67.257 17.1566V16.5663L67.4538 16.582C67.7004 16.582 67.8919 16.5322 68.0284 16.4325C68.1674 16.3328 68.2815 16.1504 68.3707 15.8854L68.5321 15.4525L67.013 11.2417H67.808L68.8705 14.4333Z" fill="black"/>
<path d="M73.6363 12.4066C73.6363 12.2072 73.5602 12.0498 73.408 11.9343C73.2558 11.8163 73.0473 11.7572 72.7823 11.7572C72.5252 11.7572 72.31 11.8241 72.1369 11.9579C71.9664 12.0917 71.8811 12.2492 71.8811 12.4302H71.157C71.157 12.0603 71.3118 11.7572 71.6213 11.5211C71.9309 11.285 72.3179 11.1669 72.7823 11.1669C73.2808 11.1669 73.6691 11.2745 73.9472 11.4896C74.2253 11.7021 74.3643 12.0065 74.3643 12.4026C74.3643 12.5942 74.3066 12.7699 74.1911 12.93C74.0757 13.09 73.9117 13.2173 73.6992 13.3117C74.1951 13.4796 74.443 13.8102 74.443 14.3034C74.443 14.6943 74.2922 15.0039 73.9904 15.2322C73.6887 15.4604 73.286 15.5745 72.7823 15.5745C72.2917 15.5745 71.8863 15.4552 71.5663 15.2164C71.2488 14.9751 71.0901 14.6497 71.0901 14.2405H71.8142C71.8142 14.4477 71.906 14.6261 72.0897 14.7757C72.2759 14.9226 72.5068 14.996 72.7823 14.996C73.0604 14.996 73.2847 14.9318 73.4552 14.8032C73.6258 14.6747 73.711 14.5081 73.711 14.3034C73.711 14.0647 73.6389 13.8941 73.4946 13.7918C73.3529 13.6869 73.1312 13.6344 72.8295 13.6344H72.1015V13.0205H72.8925C73.3883 13.0074 73.6363 12.8027 73.6363 12.4066Z" fill="black"/>
<path d="M78.1423 11.2417H78.8703V15.4998H78.1423V12.3948L76.1785 15.4998H75.4505V11.2417H76.1785V14.3506L78.1423 11.2417Z" fill="black"/>
<path d="M83.2032 11.832H81.7746V15.4998H81.0466V11.832H79.6456V11.2417H83.2032V11.832Z" fill="black"/>
<path d="M85.3637 15.5785C84.7865 15.5785 84.3169 15.3896 83.9548 15.0118C83.5928 14.6314 83.4117 14.1237 83.4117 13.4888V13.355C83.4117 12.9326 83.4917 12.5561 83.6518 12.2255C83.8144 11.8923 84.0401 11.6326 84.3287 11.4463C84.6199 11.2574 84.9347 11.163 85.2732 11.163C85.8267 11.163 86.257 11.3453 86.564 11.71C86.8709 12.0747 87.0244 12.5968 87.0244 13.2763V13.5793H84.1398C84.1503 13.9991 84.2723 14.3388 84.5058 14.5986C84.7419 14.8557 85.041 14.9842 85.403 14.9842C85.6601 14.9842 85.8779 14.9318 86.0563 14.8268C86.2347 14.7219 86.3908 14.5828 86.5246 14.4097L86.9693 14.756C86.6125 15.3043 86.0773 15.5785 85.3637 15.5785ZM85.2732 11.7612C84.9793 11.7612 84.7327 11.8687 84.5333 12.0839C84.3339 12.2964 84.2106 12.5955 84.1634 12.9811H86.2964V12.926C86.2754 12.5561 86.1757 12.2701 85.9973 12.0681C85.8189 11.8635 85.5775 11.7612 85.2732 11.7612Z" fill="black"/>
<path d="M89.9366 15.4998V11.2417H91.5973C92.164 11.2417 92.5982 11.3414 92.8999 11.5408C93.2043 11.7376 93.3564 12.0275 93.3564 12.4105C93.3564 12.6073 93.2974 12.7857 93.1793 12.9457C93.0613 13.1031 92.8868 13.2238 92.6559 13.3078C92.913 13.3681 93.119 13.4862 93.2738 13.662C93.4312 13.8377 93.5099 14.0476 93.5099 14.2916C93.5099 14.6825 93.3656 14.9816 93.077 15.1889C92.791 15.3961 92.3857 15.4998 91.861 15.4998H89.9366ZM90.6646 13.6305V14.9134H91.8688C92.1732 14.9134 92.4001 14.857 92.5497 14.7442C92.7018 14.6314 92.7779 14.4726 92.7779 14.268C92.7779 13.843 92.4657 13.6305 91.8413 13.6305H90.6646ZM90.6646 13.048H91.6052C92.2873 13.048 92.6284 12.8486 92.6284 12.4499C92.6284 12.0511 92.3057 11.8451 91.6603 11.832H90.6646V13.048Z" fill="black"/>
</svg>
