<svg width="142" height="46" viewBox="0 0 142 46" fill="none" xmlns="http://www.w3.org/2000/svg">
<path d="M141.387 39.9973C141.387 42.6374 139.309 44.7489 136.762 44.7489H5.52918C2.98221 44.7489 0.904297 42.6374 0.904297 39.9973V5.25161C0.904297 2.61152 2.98221 0.5 5.52918 0.5H136.762C139.309 0.5 141.387 2.61152 141.387 5.25161V39.9973Z" stroke="black"/>
<path d="M18.6719 8.75684V21.9323V35.0846L31.6201 21.9323L18.6719 8.75684Z" fill="url(#paint0_linear)"/>
<path d="M35.0906 18.3772L29.875 15.2867L18.6729 8.66406V8.75701L31.6211 21.9325L35.0906 18.3772Z" fill="url(#paint1_linear)"/>
<path d="M18.6719 35.0846V35.1776L29.8741 28.555L35.0896 25.4644L31.6201 21.9324L18.6719 35.0846Z" fill="url(#paint2_linear)"/>
<path d="M35.0896 18.3774L31.6201 21.9327L35.0896 25.4648L41.0762 21.9327L35.0896 18.3774Z" fill="url(#paint3_linear)"/>
<path d="M103.426 28.98C102.95 28.98 102.496 28.8871 102.088 28.7012C101.68 28.5153 101.34 28.2364 101.067 27.8414H100.977C101.022 28.2829 101.067 28.7012 101.067 29.1195V32.2797H99.9336V21.1956H100.863L101.022 22.2412H101.067C101.362 21.823 101.702 21.5209 102.088 21.335C102.473 21.1491 102.927 21.0562 103.426 21.0562C104.424 21.0562 105.172 21.4047 105.716 22.1018C106.26 22.7989 106.532 23.7749 106.532 25.0297C106.532 26.2845 106.26 27.2605 105.716 27.9576C105.149 28.6315 104.378 28.98 103.426 28.98ZM103.244 22.0321C102.473 22.0321 101.929 22.2412 101.589 22.6828C101.249 23.1243 101.067 23.7981 101.067 24.7509V25.0065C101.067 26.0754 101.249 26.8422 101.589 27.307C101.929 27.7717 102.496 28.0041 103.267 28.0041C103.902 28.0041 104.424 27.7252 104.786 27.1908C105.149 26.6563 105.331 25.9127 105.331 24.9832C105.331 24.0305 105.149 23.2869 104.786 22.7757C104.424 22.2877 103.925 22.0321 103.244 22.0321Z" fill="black"/>
<path d="M109.141 28.8403H108.007V17.9653H109.141V28.8403Z" fill="black"/>
<path d="M115.649 28.8406L115.422 27.7485H115.376C115.014 28.2364 114.628 28.5618 114.265 28.7244C113.902 28.8871 113.426 28.98 112.882 28.98C112.134 28.98 111.567 28.7941 111.136 28.3991C110.705 28.0041 110.501 27.4464 110.501 26.726C110.501 25.1691 111.703 24.3791 114.129 24.2861L115.399 24.2396V23.7749C115.399 23.1707 115.263 22.7292 115.014 22.4504C114.764 22.1715 114.356 22.0321 113.812 22.0321C113.199 22.0321 112.474 22.218 111.703 22.613L111.363 21.73C111.726 21.5209 112.134 21.3582 112.565 21.242C112.995 21.1259 113.449 21.0562 113.88 21.0562C114.764 21.0562 115.422 21.2653 115.853 21.6603C116.283 22.0554 116.488 22.706 116.488 23.6122V28.8406H115.649ZM113.086 28.0273C113.789 28.0273 114.333 27.8182 114.741 27.4231C115.15 27.0281 115.354 26.4704 115.354 25.7501V25.0529L114.22 25.0994C113.313 25.1227 112.678 25.2853 112.27 25.5409C111.862 25.7965 111.68 26.1916 111.68 26.726C111.68 27.1443 111.794 27.4696 112.043 27.6788C112.292 27.9111 112.633 28.0273 113.086 28.0273Z" fill="black"/>
<path d="M117.146 21.1956H118.347L119.98 25.5642C120.343 26.5634 120.57 27.2837 120.638 27.7252H120.683C120.751 27.4928 120.864 27.0746 121.046 26.5169C121.227 25.9359 121.862 24.1699 122.905 21.2188H124.13L120.932 29.9095C120.615 30.7693 120.252 31.3735 119.821 31.7452C119.39 32.117 118.869 32.2797 118.257 32.2797C117.917 32.2797 117.576 32.2332 117.236 32.1635V31.234C117.486 31.2805 117.758 31.327 118.075 31.327C118.846 31.327 119.413 30.8855 119.731 29.9792L120.139 28.8871L117.146 21.1956Z" fill="black"/>
<path d="M82.4507 21.8925C82.8135 22.1945 83.5619 22.8452 83.5619 24.0535C83.5619 25.2386 82.9042 25.7963 82.2466 26.3308C82.0425 26.5399 81.8158 26.7723 81.8158 27.1208C81.8158 27.4694 82.0425 27.6553 82.2239 27.8179L82.7909 28.2594C83.4711 28.8636 84.1061 29.3981 84.1061 30.5134C84.1061 32.0239 82.6775 33.5343 80.0016 33.5343C77.734 33.5343 76.6455 32.4189 76.6455 31.2338C76.6455 30.6529 76.9176 29.8396 77.8474 29.2819C78.8225 28.6777 80.1377 28.5848 80.8407 28.5383C80.6139 28.2594 80.3645 27.9574 80.3645 27.4461C80.3645 27.1673 80.4325 27.0046 80.5232 26.8187C80.3418 26.842 80.183 26.842 80.0243 26.842C78.3689 26.842 77.4392 25.5872 77.4392 24.3324C77.4392 23.5888 77.7567 22.7755 78.437 22.1945C79.3213 21.4509 80.3871 21.3115 81.2262 21.3115H84.4462L83.4485 21.8925H82.4507ZM81.3396 29.003C81.2035 28.9798 81.1355 28.9798 80.9767 28.9798C80.8407 28.9798 80.0016 29.003 79.344 29.2354C79.0039 29.3516 78.0061 29.7466 78.0061 30.8852C78.0061 32.0239 79.0946 32.8372 80.75 32.8372C82.2466 32.8372 83.0403 32.0936 83.0403 31.1176C83.0403 30.3043 82.5414 29.8628 81.3396 29.003ZM81.7931 25.959C82.1559 25.5872 82.1786 25.0759 82.1786 24.7971C82.1786 23.6352 81.4983 21.846 80.2057 21.846C79.7975 21.846 79.3667 22.0551 79.1172 22.3804C78.8451 22.7058 78.7771 23.1473 78.7771 23.5655C78.7771 24.6344 79.3894 26.4237 80.7273 26.4237C81.1355 26.4237 81.5436 26.2146 81.7931 25.959Z" fill="black"/>
<path d="M72.6085 28.7473C70.1367 28.7473 68.7988 26.7722 68.7988 24.9829C68.7988 22.8916 70.4769 21.1023 72.8352 21.1023C75.1256 21.1023 76.5542 22.938 76.5542 24.8667C76.5769 26.7489 75.1482 28.7473 72.6085 28.7473ZM74.5586 27.4461C74.9441 26.9348 75.0349 26.2842 75.0349 25.68C75.0349 24.2626 74.3772 21.5903 72.4497 21.5903C71.9282 21.5903 71.4293 21.7994 71.0438 22.1247C70.4315 22.6824 70.3182 23.3795 70.3182 24.0767C70.3182 25.6568 71.0891 28.2594 72.9713 28.2594C73.5836 28.2826 74.1958 27.9573 74.5586 27.4461Z" fill="black"/>
<path d="M64.1505 28.7473C61.6787 28.7473 60.3408 26.7722 60.3408 24.9829C60.3408 22.8916 62.0189 21.1023 64.3772 21.1023C66.6675 21.1023 68.0962 22.938 68.0962 24.8667C68.1188 26.7489 66.6902 28.7473 64.1505 28.7473ZM66.1006 27.4461C66.4861 26.9348 66.5768 26.2842 66.5768 25.68C66.5768 24.2626 65.9192 21.5903 63.9917 21.5903C63.4702 21.5903 62.9713 21.7994 62.5858 22.1247C61.9735 22.6824 61.8601 23.3795 61.8601 24.0767C61.8601 25.6568 62.6311 28.2594 64.5133 28.2594C65.1255 28.2826 65.7378 27.9573 66.1006 27.4461Z" fill="black"/>
<path d="M59.1614 28.4917L56.9164 29.0262C56.0094 29.1656 55.193 29.305 54.3313 29.305C50.0001 29.305 48.3447 26.0518 48.3447 23.4957C48.3447 20.3819 50.6804 17.4773 54.6715 17.4773C55.5105 17.4773 56.3268 17.6167 57.0752 17.8259C58.2543 18.1744 58.7986 18.5694 59.1387 18.8251L57.8462 20.1031L57.3019 20.2425L57.6874 19.5919C57.1432 19.0574 56.1908 18.0815 54.3313 18.0815C51.8596 18.0815 49.9774 20.0101 49.9774 22.8219C49.9774 25.8427 52.109 28.6776 55.5332 28.6776C56.5309 28.6776 57.0525 28.4685 57.5287 28.2826V25.68L55.1703 25.8194L56.4176 25.1223H59.751L59.3428 25.5174C59.2294 25.6103 59.2068 25.6568 59.1841 25.773C59.1614 25.9124 59.1614 26.3771 59.1614 26.5398V28.4917Z" fill="black"/>
<path d="M87.4155 28.0269C86.8939 27.9804 86.7805 27.8875 86.7805 27.2601V27.0742V18.1743C86.7805 18.1511 86.7805 18.1046 86.7805 18.0814C86.8486 17.5237 87.0073 17.4307 87.4835 17.1287H85.2612L84.082 17.7096H85.2839V27.0974V27.6319C85.2839 27.9572 85.2159 28.0037 84.853 28.4917H87.6196L88.2092 28.1431C87.937 28.0966 87.6876 28.0734 87.4155 28.0269Z" fill="black"/>
<path d="M93.7885 28.1894C93.6071 28.2824 93.4483 28.3986 93.2669 28.4683C92.7454 28.7007 92.2238 28.7704 91.7476 28.7704C91.2487 28.7704 90.4777 28.7471 89.684 28.143C88.5729 27.3529 88.0967 25.9819 88.0967 24.7736C88.0967 22.3104 90.0695 21.0789 91.6569 21.0789C92.2238 21.0789 92.7907 21.2183 93.2669 21.5204C94.0379 22.0548 94.242 22.7287 94.3554 23.1005L90.7045 24.6341L89.5026 24.7271C89.8881 26.7487 91.226 27.9338 92.7227 27.9338C93.5164 27.9338 94.0833 27.655 94.6275 27.3761L93.7885 28.1894ZM92.3372 23.4258C92.632 23.3096 92.7907 23.2167 92.7907 22.9843C92.7907 22.3569 92.0877 21.6133 91.2487 21.6133C90.6138 21.6133 89.4573 22.1013 89.4573 23.8208C89.4573 24.0997 89.4799 24.3785 89.5026 24.6574L92.3372 23.4258Z" fill="black"/>
<path d="M95.3082 21.2185V22.2642H95.1722V21.2185H94.832V21.1023H95.6257V21.2185H95.3082Z" fill="black"/>
<path d="M96.6916 22.2642V21.1952L96.3741 22.2642H96.2834L95.9659 21.1952V22.2642H95.8525V21.1023H96.0566L96.3514 22.0318L96.6462 21.1023H96.8503V22.2642H96.6916Z" fill="black"/>
<path d="M51.8032 15.1528H51.1897V14.3404H49.2454V15.1505H48.6165L48.5811 13.7935H48.8246C48.956 13.6815 49.0572 13.5174 49.128 13.3011C49.2004 13.0832 49.2491 12.8139 49.2742 12.4932L49.3672 11.0364H51.4798V13.7935H51.8563L51.8032 15.1528ZM49.5864 13.7935H50.8155V11.5878H49.9983L49.943 12.4569C49.8987 13.0393 49.7798 13.4849 49.5864 13.7935Z" fill="black"/>
<path d="M54.8016 12.7633C54.8016 13.0885 54.7455 13.3737 54.6333 13.6188C54.5211 13.8638 54.3602 14.053 54.1505 14.1861C53.9424 14.3192 53.7032 14.3858 53.433 14.3858C53.1658 14.3858 52.9274 14.32 52.7177 14.1883C52.5081 14.0567 52.3457 13.8691 52.2306 13.6256C52.1154 13.3805 52.0571 13.0991 52.0556 12.7814V12.618C52.0556 12.2928 52.1124 12.0068 52.2261 11.7602C52.3413 11.5121 52.5029 11.3223 52.7111 11.1907C52.9207 11.0575 53.1599 10.991 53.4286 10.991C53.6973 10.991 53.9357 11.0575 54.1439 11.1907C54.3535 11.3223 54.5152 11.5121 54.6289 11.7602C54.744 12.0068 54.8016 12.292 54.8016 12.6158V12.7633ZM54.1284 12.6135C54.1284 12.267 54.0678 12.0038 53.9468 11.8238C53.8257 11.6438 53.653 11.5537 53.4286 11.5537C53.2057 11.5537 53.0337 11.643 52.9126 11.8215C52.7916 11.9985 52.7303 12.2587 52.7288 12.6021V12.7633C52.7288 13.1006 52.7893 13.3623 52.9104 13.5484C53.0315 13.7345 53.2057 13.8275 53.433 13.8275C53.6559 13.8275 53.8272 13.7383 53.9468 13.5598C54.0664 13.3797 54.1269 13.118 54.1284 12.7746V12.6135Z" fill="black"/>
<path d="M57.8155 13.2398C57.7904 13.5953 57.662 13.8752 57.4302 14.0794C57.1999 14.2837 56.8958 14.3858 56.5178 14.3858C56.1044 14.3858 55.7789 14.2436 55.5412 13.9592C55.305 13.6732 55.1869 13.2814 55.1869 12.7837V12.5817C55.1869 12.264 55.2415 11.9841 55.3508 11.7421C55.46 11.5 55.6158 11.3147 55.818 11.1861C56.0218 11.056 56.258 10.991 56.5267 10.991C56.8987 10.991 57.1984 11.0931 57.4258 11.2973C57.6531 11.5015 57.7845 11.7882 57.8199 12.1574H57.1556C57.1394 11.9441 57.081 11.7897 56.9807 11.6944C56.8817 11.5976 56.7304 11.5492 56.5267 11.5492C56.3052 11.5492 56.1391 11.6309 56.0284 11.7943C55.9192 11.9562 55.8631 12.208 55.8601 12.5499V12.7996C55.8601 13.1566 55.9125 13.4176 56.0173 13.5825C56.1236 13.7474 56.2905 13.8298 56.5178 13.8298C56.723 13.8298 56.8758 13.7822 56.9762 13.6868C57.0781 13.59 57.1364 13.441 57.1512 13.2398H57.8155Z" fill="black"/>
<path d="M60.6124 11.5878H59.6248V14.3404H58.9604V11.5878H57.986V11.0364H60.6124V11.5878Z" fill="black"/>
<path d="M62.2024 12.5976L62.7893 11.0364H63.5068L62.3796 13.7617L62.2888 13.941C62.122 14.239 61.8666 14.388 61.5226 14.388L61.2901 14.379L61.2834 13.8321C61.3189 13.8381 61.3764 13.8412 61.4562 13.8412C61.5492 13.8412 61.6237 13.8245 61.6798 13.7912C61.7374 13.7579 61.7854 13.6967 61.8238 13.6074L61.9057 13.3918L60.7741 11.0364H61.4894L62.2024 12.5976Z" fill="black"/>
<path d="M66.4853 14.3404H65.8187V11.5878H64.5277V14.3404H63.8633V11.0364H66.4853V14.3404Z" fill="black"/>
<path d="M69.6941 14.3404H69.0297V12.9244H67.7343V14.3404H67.0699V11.0364H67.7343V12.3752H69.0297V11.0364H69.6941V14.3404Z" fill="black"/>
<path d="M72.9251 12.7633C72.9251 13.0885 72.8689 13.3737 72.7567 13.6188C72.6445 13.8638 72.4836 14.053 72.274 14.1861C72.0658 14.3192 71.8267 14.3858 71.5565 14.3858C71.2893 14.3858 71.0508 14.32 70.8412 14.1883C70.6316 14.0567 70.4692 13.8691 70.354 13.6256C70.2389 13.3805 70.1805 13.0991 70.1791 12.7814V12.618C70.1791 12.2928 70.2359 12.0068 70.3496 11.7602C70.4647 11.5121 70.6264 11.3223 70.8346 11.1907C71.0442 11.0575 71.2834 10.991 71.5521 10.991C71.8208 10.991 72.0592 11.0575 72.2673 11.1907C72.477 11.3223 72.6386 11.5121 72.7523 11.7602C72.8675 12.0068 72.9251 12.292 72.9251 12.6158V12.7633ZM72.2518 12.6135C72.2518 12.267 72.1913 12.0038 72.0703 11.8238C71.9492 11.6438 71.7765 11.5537 71.5521 11.5537C71.3291 11.5537 71.1571 11.643 71.0361 11.8215C70.915 11.9985 70.8538 12.2587 70.8523 12.6021V12.7633C70.8523 13.1006 70.9128 13.3623 71.0339 13.5484C71.1549 13.7345 71.3291 13.8275 71.5565 13.8275C71.7794 13.8275 71.9507 13.7383 72.0703 13.5598C72.1898 13.3797 72.2504 13.118 72.2518 12.7746V12.6135Z" fill="black"/>
<path d="M74.5372 14.3404V11.0364H75.6666C76.0578 11.0364 76.3546 11.1135 76.5568 11.2678C76.7591 11.4206 76.8602 11.6453 76.8602 11.9418C76.8602 12.1037 76.8196 12.2466 76.7384 12.3707C76.6572 12.4932 76.5443 12.5832 76.3996 12.6407C76.5649 12.6831 76.6949 12.7686 76.7894 12.8971C76.8853 13.0257 76.9333 13.1831 76.9333 13.3691C76.9333 13.6868 76.8344 13.9274 76.6366 14.0908C76.4387 14.2542 76.1567 14.3374 75.7906 14.3404H74.5372ZM75.2016 12.9017V13.7935H75.7707C75.9272 13.7935 76.049 13.7557 76.1361 13.68C76.2247 13.6029 76.2689 13.497 76.2689 13.3623C76.2689 13.0598 76.1161 12.9062 75.8105 12.9017H75.2016ZM75.2016 12.4206H75.6932C76.0283 12.4145 76.1959 12.2776 76.1959 12.0099C76.1959 11.8601 76.1531 11.7527 76.0674 11.6876C75.9833 11.6211 75.8497 11.5878 75.6666 11.5878H75.2016V12.4206Z" fill="black"/>
<defs>
<linearGradient id="paint0_linear" x1="25.1418" y1="8.75939" x2="25.1418" y2="35.0878" gradientUnits="userSpaceOnUse">
<stop stop-color="#257CB0"/>
<stop offset="0.2863" stop-color="#4A93B5"/>
<stop offset="0.767" stop-color="#78BCBB"/>
<stop offset="1" stop-color="#89CFBD"/>
</linearGradient>
<linearGradient id="paint1_linear" x1="18.6649" y1="15.2939" x2="35.1007" y2="15.2939" gradientUnits="userSpaceOnUse">
<stop stop-color="#52C1AD"/>
<stop offset="1" stop-color="#DEE89A"/>
</linearGradient>
<linearGradient id="paint2_linear" x1="26.8817" y1="21.9238" x2="26.8817" y2="35.1836" gradientUnits="userSpaceOnUse">
<stop stop-color="#EC413D"/>
<stop offset="0.1668" stop-color="#DA4452"/>
<stop offset="0.5748" stop-color="#B0487A"/>
<stop offset="0.8619" stop-color="#954A92"/>
<stop offset="1" stop-color="#8A4A9D"/>
</linearGradient>
<linearGradient id="paint3_linear" x1="36.348" y1="18.3882" x2="36.348" y2="25.4597" gradientUnits="userSpaceOnUse">
<stop stop-color="#F58879"/>
<stop offset="0.1194" stop-color="#F69079"/>
<stop offset="0.7128" stop-color="#FCB877"/>
<stop offset="1" stop-color="#FEC874"/>
</linearGradient>
</defs>
</svg>
