<?xml version="1.0" encoding="utf-8"?>
<!-- Generator: Adobe Illustrator 25.2.3, SVG Export Plug-In . SVG Version: 6.00 Build 0)  -->
<svg version="1.1" id="Слой_1" xmlns="http://www.w3.org/2000/svg" xmlns:xlink="http://www.w3.org/1999/xlink" x="0px" y="0px"
	 viewBox="0 0 16 16" style="enable-background:new 0 0 16 16;" xml:space="preserve">
<style type="text/css">
	.st0{fill:url(#SVGID_1_);}
</style>
<linearGradient id="SVGID_1_" gradientUnits="userSpaceOnUse" x1="0" y1="8" x2="16" y2="8">
	<stop  offset="0" style="stop-color:#FC4000"/>
	<stop  offset="1" style="stop-color:#780AFA"/>
</linearGradient>
<path class="st0" d="M8,0.2C3.6,0.2,0,3.7,0,8c0,4.3,3.6,7.8,8,7.8c4.4,0,8-3.5,8-7.8C16,3.7,12.4,0.2,8,0.2z M11.7,5.5
	c-0.1,1.2-0.6,4.2-0.9,5.6c-0.1,0.6-0.3,0.8-0.5,0.8c-0.5,0-0.8-0.3-1.3-0.6c-0.7-0.4-1.1-0.7-1.8-1.2C6.4,9.6,6.9,9.4,7.4,8.9
	C7.5,8.8,9.5,7,9.6,6.8c0,0,0-0.1,0-0.1c0,0-0.1,0-0.2,0C9.3,6.7,8.2,7.4,6,8.8C5.7,9,5.4,9.1,5.1,9.1C4.8,9.1,4.3,9,3.9,8.9
	C3.4,8.7,3,8.6,3,8.3c0-0.1,0.2-0.3,0.6-0.4C6,6.9,7.5,6.3,8.3,6c2.2-0.9,2.7-1.1,3-1.1c0.1,0,0.2,0,0.3,0.1
	c0.1,0.1,0.1,0.1,0.1,0.2C11.7,5.3,11.7,5.4,11.7,5.5L11.7,5.5z"/>
</svg>
