<svg width="16" height="18" viewBox="0 0 16 18" fill="none" xmlns="http://www.w3.org/2000/svg">
<g clip-path="url(#clip0_2_6)">
<path d="M16 7.21566C14.4277 7.21928 12.8939 6.74731 11.6153 5.86644V12.0099C11.6149 13.1478 11.2536 14.2584 10.5797 15.1932C9.90574 16.1281 8.95136 16.8426 7.84413 17.2413C6.7369 17.64 5.5296 17.7038 4.38367 17.4243C3.23773 17.1447 2.20777 16.5351 1.43152 15.6769C0.655272 14.8187 0.169726 13.7529 0.0398073 12.622C-0.0901109 11.491 0.141792 10.3488 0.704507 9.34816C1.26722 8.34749 2.13393 7.53602 3.18873 7.02225C4.24354 6.50849 5.43616 6.31692 6.60714 6.47316V9.56313C6.0713 9.4009 5.4959 9.40579 4.96312 9.57709C4.43033 9.74839 3.96741 10.0773 3.64046 10.517C3.3135 10.9566 3.13924 11.4845 3.14254 12.0251C3.14585 12.5658 3.32657 13.0916 3.65888 13.5275C3.99119 13.9634 4.45811 14.2871 4.99295 14.4523C5.52779 14.6176 6.10321 14.6159 6.63703 14.4476C7.17085 14.2793 7.63577 13.953 7.9654 13.5152C8.29503 13.0774 8.47251 12.5506 8.47249 12.0099V0H11.6153C11.6132 0.255454 11.6354 0.51056 11.6818 0.762094V0.762094C11.791 1.3236 12.0181 1.85777 12.3491 2.33191C12.6802 2.80605 13.1082 3.21021 13.6071 3.51966C14.3169 3.97138 15.1491 4.21214 16 4.21197V7.21566Z" fill="white"/>
</g>
<defs>
<clipPath id="clip0_2_6">
<rect width="16" height="17.6" fill="white"/>
</clipPath>
</defs>
</svg>
