<?xml version="1.0" encoding="utf-8"?>
<!-- Generator: Adobe Illustrator 25.2.3, SVG Export Plug-In . SVG Version: 6.00 Build 0)  -->
<svg version="1.1" id="Слой_1" xmlns="http://www.w3.org/2000/svg" xmlns:xlink="http://www.w3.org/1999/xlink" x="0px" y="0px"
	 viewBox="0 0 16 18" style="enable-background:new 0 0 16 18;" xml:space="preserve">
<style type="text/css">
	.st0{clip-path:url(#SVGID_2_);}
	.st1{fill:url(#SVGID_3_);}
</style>
<g>
	<defs>
		<rect id="SVGID_1_" y="0" width="16" height="17.6"/>
	</defs>
	<clipPath id="SVGID_2_">
		<use xlink:href="#SVGID_1_"  style="overflow:visible;"/>
	</clipPath>
	<g class="st0">
		<linearGradient id="SVGID_3_" gradientUnits="userSpaceOnUse" x1="4.638702e-03" y1="8.7978" x2="16" y2="8.7978">
			<stop  offset="0" style="stop-color:#FC4000"/>
			<stop  offset="1" style="stop-color:#780AFA"/>
		</linearGradient>
		<path class="st1" d="M16,7.2c-1.6,0-3.1-0.5-4.4-1.3V12c0,1.1-0.4,2.2-1,3.2c-0.7,0.9-1.6,1.6-2.7,2c-1.1,0.4-2.3,0.5-3.5,0.2
			c-1.1-0.3-2.2-0.9-3-1.7c-0.8-0.9-1.3-1.9-1.4-3.1c-0.1-1.1,0.1-2.3,0.7-3.3c0.6-1,1.4-1.8,2.5-2.3c1.1-0.5,2.2-0.7,3.4-0.5v3.1
			C6.1,9.4,5.5,9.4,5,9.6c-0.5,0.2-1,0.5-1.3,0.9c-0.3,0.4-0.5,1-0.5,1.5c0,0.5,0.2,1.1,0.5,1.5s0.8,0.8,1.3,0.9
			c0.5,0.2,1.1,0.2,1.6,0c0.5-0.2,1-0.5,1.3-0.9c0.3-0.4,0.5-1,0.5-1.5V0h3.1c0,0.3,0,0.5,0.1,0.8l0,0c0.1,0.6,0.3,1.1,0.7,1.6
			c0.3,0.5,0.8,0.9,1.3,1.2C14.3,4,15.1,4.2,16,4.2V7.2z"/>
	</g>
</g>
</svg>
