<?xml version="1.0" encoding="utf-8"?>
<!-- Generator: Adobe Illustrator 25.2.3, SVG Export Plug-In . SVG Version: 6.00 Build 0)  -->
<svg version="1.1" id="Слой_1" xmlns="http://www.w3.org/2000/svg" xmlns:xlink="http://www.w3.org/1999/xlink" x="0px" y="0px"
	 viewBox="0 0 16 18" style="enable-background:new 0 0 16 18;" xml:space="preserve">
<style type="text/css">
	.st0{fill:url(#SVGID_1_);}
</style>
<linearGradient id="SVGID_1_" gradientUnits="userSpaceOnUse" x1="0" y1="8.8889" x2="16" y2="8.8889">
	<stop  offset="0" style="stop-color:#FC4000"/>
	<stop  offset="1" style="stop-color:#780AFA"/>
</linearGradient>
<path class="st0" d="M1.1,2.2C0,3.3,0,5.1,0,8.6v0.6c0,3.5,0,5.3,1.1,6.4c1.1,1.1,2.9,1.1,6.6,1.1h0.6c3.6,0,5.4,0,6.6-1.1
	C16,14.5,16,12.7,16,9.2V8.6c0-3.5,0-5.3-1.1-6.4c-1.1-1.1-2.9-1.1-6.6-1.1H7.7C4.1,1.1,2.2,1.1,1.1,2.2z M2.7,5.8h1.8
	c0.1,3,1.4,4.2,2.5,4.5V5.8h1.7v2.6c1.1-0.1,2.2-1.3,2.5-2.6H13c-0.1,0.7-0.4,1.3-0.8,1.9c-0.4,0.6-0.9,1-1.5,1.4
	c0.7,0.3,1.3,0.8,1.7,1.3c0.5,0.6,0.8,1.2,1,1.9h-1.9c-0.2-0.6-0.5-1.2-1-1.6C10,10.3,9.4,10.1,8.7,10v2.3H8.5
	C4.9,12.3,2.8,9.9,2.7,5.8z"/>
</svg>
