<svg width="155" height="50" viewBox="0 0 155 50" fill="none" xmlns="http://www.w3.org/2000/svg">
<path d="M154.393 43.0957H154.368V43.5957C154.368 46.4156 152.081 48.7245 149.24 48.7245H5.62877C2.78735 48.7245 0.5 46.4156 0.5 43.5957V6.32238C0.5 3.47955 2.78594 1.1936 5.62877 1.1936H149.264C152.084 1.1936 154.393 3.48095 154.393 6.32238V43.0957Z" stroke="black"/>
<path d="M43.5422 28.8732C42.8599 30.3596 42.5431 31.0419 41.6903 32.3577C40.4719 34.2096 38.7662 36.5001 36.6707 36.5001C34.7944 36.5245 34.3071 35.2818 31.7729 35.2818C29.2387 35.3061 28.7027 36.5001 26.8264 36.5001C24.7065 36.4758 23.0739 34.4289 21.8799 32.577C18.4929 27.4356 18.1518 21.3926 20.223 18.1761C21.7093 15.8856 24.0486 14.5698 26.2416 14.5698C28.4834 14.5698 29.8967 15.7882 31.7485 15.7882C33.5517 15.7882 34.6482 14.5698 37.2311 14.5698C39.1805 14.5698 41.2517 15.642 42.7381 17.4695C37.889 20.1255 38.6688 27.0214 43.5422 28.8732Z" fill="black"/>
<path d="M35.2588 12.4986C36.2091 11.2802 36.9158 9.59891 36.6477 7.84448C35.1126 7.94195 33.3095 8.91663 32.2617 10.2081C31.3114 11.3533 30.5316 13.0834 30.824 14.7403C32.5054 14.7891 34.2354 13.79 35.2588 12.4986Z" fill="black"/>
<path d="M57.3197 20.8779L52.4707 35.1326H54.6881L56.1258 30.7466H60.8042L62.2906 35.1326H64.5811L59.7077 20.8779H57.3197ZM58.465 23.2172C58.6356 23.8507 58.8061 24.5086 59.0254 25.2396L60.3412 29.0165H56.6375L57.9289 25.2153C58.1238 24.5817 58.2944 23.9238 58.465 23.2172Z" fill="black"/>
<path d="M70.8683 24.5815C69.4062 24.5815 68.2123 25.142 67.4325 26.2385L67.3351 24.8252H65.3613V24.9958C65.4101 25.873 65.4344 26.8477 65.4344 28.2366V39.2261H67.6031V34.109C68.261 34.9131 69.3332 35.3761 70.5515 35.3761C71.8186 35.3761 72.9638 34.8888 73.8167 33.9872C74.767 32.9882 75.2543 31.5505 75.2543 29.8448C75.2543 28.3341 74.8157 27.0182 74.0116 26.0679C73.2319 25.0932 72.111 24.5815 70.8683 24.5815ZM70.3322 26.3603C72.2572 26.3603 73.11 28.1391 73.11 29.9179C73.11 32.184 72.0135 33.5973 70.2347 33.5973C69.0164 33.5973 67.993 32.7689 67.7006 31.5992C67.6518 31.4043 67.6275 31.185 67.6275 30.8926V29.1625C67.6275 29.0163 67.6518 28.8214 67.7006 28.6265C67.7006 28.5777 67.7249 28.5046 67.7249 28.4559C68.0417 27.2132 69.1138 26.3603 70.3322 26.3603Z" fill="black"/>
<path d="M81.9787 24.5815C80.5167 24.5815 79.3227 25.142 78.5429 26.2385L78.4455 24.8252H76.4961V24.9958C76.5448 25.873 76.5692 26.8477 76.5692 28.2366V39.2261H78.7379V34.109C79.3958 34.9131 80.4679 35.3761 81.6863 35.3761C82.9534 35.3761 84.0986 34.8888 84.9515 33.9872C85.9018 32.9882 86.3891 31.5505 86.3891 29.8448C86.3891 28.3341 85.9505 27.0182 85.1464 26.0679C84.3423 25.0932 83.2214 24.5815 81.9787 24.5815ZM81.4426 26.3603C83.3676 26.3603 84.2204 28.1391 84.2204 29.9179C84.2204 32.184 83.1239 33.5973 81.3451 33.5973C80.1511 33.5973 79.1034 32.7689 78.811 31.5992C78.7622 31.4043 78.7379 31.185 78.7379 30.8926V29.1625C78.7379 29.0163 78.7622 28.8214 78.811 28.6265C78.811 28.5777 78.8353 28.5046 78.8353 28.4559C79.1521 27.2132 80.2242 26.3603 81.4426 26.3603Z" fill="black"/>
<path d="M95.8924 26.9207C93.8699 26.141 93.2364 25.5318 93.2364 24.3865C93.2364 23.4362 93.9917 22.4616 95.6974 22.4616C97.0863 22.4616 97.9879 22.9489 98.2316 23.0951L98.4265 23.2169L99.0357 21.4138L98.9139 21.3407C98.5484 21.1214 97.525 20.634 95.7705 20.634C93.0171 20.634 91.0921 22.2666 91.0921 24.5815C91.0921 26.4577 92.286 27.7736 94.8689 28.6995C96.6965 29.3818 97.3788 30.0884 97.3788 31.2824C97.3788 32.647 96.331 33.4754 94.6253 33.4754C93.5288 33.4754 92.3835 33.1587 91.5063 32.5982L91.3114 32.4764L90.7266 34.3283L90.824 34.4014C91.6281 34.9375 93.1633 35.3273 94.4791 35.3273C98.1829 35.3273 99.4987 33.0612 99.4987 31.1362C99.523 29.1625 98.4753 27.9441 95.8924 26.9207Z" fill="black"/>
<path d="M103.398 22.3396L101.278 22.9975V24.8007H99.7188V26.5307H101.278V31.8184C101.278 33.0854 101.522 33.987 102.034 34.5475C102.521 35.0835 103.252 35.3759 104.129 35.3759C104.933 35.3759 105.518 35.2054 105.786 35.1079L105.908 35.0592L105.811 33.3291L105.616 33.4022C105.348 33.4753 105.055 33.5241 104.617 33.5241C103.788 33.5241 103.423 32.988 103.423 31.7453V26.5307H106.03V24.8007H103.423V22.3396H103.398Z" fill="black"/>
<path d="M111.365 24.5815C108.344 24.5815 106.248 26.8233 106.248 30.0641C106.248 33.1831 108.295 35.3761 111.219 35.3761H111.243C113.704 35.3761 116.36 33.6461 116.36 29.8692C116.36 28.3341 115.897 27.0182 114.996 26.0436C114.045 25.0932 112.803 24.5815 111.365 24.5815ZM111.292 26.2629C113.241 26.2629 114.119 28.1635 114.119 29.9179C114.119 32.0866 112.925 33.6461 111.243 33.6461H111.219C109.586 33.6461 108.392 32.1109 108.392 29.9666C108.417 28.1391 109.294 26.2629 111.292 26.2629Z" fill="black"/>
<path d="M122.939 24.679L122.817 24.6546C122.622 24.6059 122.476 24.5815 122.281 24.5815C121.16 24.5815 120.137 25.2395 119.576 26.3116L119.503 24.8008H117.578L117.602 24.9714C117.651 25.8243 117.676 26.7746 117.676 28.066L117.651 35.1081H119.82V29.6011C119.82 29.3087 119.844 29.0163 119.869 28.7727C120.112 27.4568 121.014 26.604 122.135 26.604C122.354 26.604 122.525 26.6284 122.72 26.6284L122.939 26.6527V24.679Z" fill="black"/>
<path d="M127.789 24.5571C124.914 24.5571 122.916 26.8476 122.916 30.1372C122.916 33.3049 124.914 35.3517 128.009 35.3517C129.641 35.3517 130.762 34.9862 131.42 34.6938L131.542 34.6451L131.128 33.0368L130.957 33.1099C130.372 33.3536 129.593 33.5973 128.252 33.5973C127.326 33.5973 125.158 33.2805 125.012 30.4783L131.981 30.5027L132.005 30.3565C132.054 30.1372 132.078 29.8448 132.078 29.4549C132.078 27.1888 130.957 24.5571 127.789 24.5571ZM127.643 26.1897C128.301 26.1897 128.837 26.3847 129.227 26.7989C129.836 27.4324 129.958 28.3584 129.958 28.797H125.036C125.255 27.5543 126.035 26.1897 127.643 26.1897Z" fill="black"/>
<path d="M58.2292 12.3083C58.2292 11.977 58.1079 11.7143 57.8652 11.5202C57.6253 11.3231 57.2869 11.2246 56.85 11.2246C56.4845 11.2246 56.1776 11.326 55.9291 11.5287C55.6836 11.7286 55.5608 11.977 55.5608 12.274H54.7384C54.7384 11.9428 54.8283 11.6458 55.0082 11.3831C55.191 11.1204 55.4451 10.9162 55.7707 10.7706C56.0962 10.6221 56.456 10.5479 56.85 10.5479C57.5468 10.5479 58.0879 10.7049 58.4734 11.019C58.8589 11.3303 59.0516 11.7643 59.0516 12.3211C59.0516 12.6095 58.9631 12.8722 58.7861 13.1092C58.609 13.3462 58.362 13.5333 58.0451 13.6703C58.7789 13.9159 59.1459 14.4028 59.1459 15.1309C59.1459 15.6906 58.9374 16.1347 58.5205 16.463C58.1036 16.7914 57.5468 16.9556 56.85 16.9556C56.436 16.9556 56.0591 16.8828 55.7193 16.7372C55.3823 16.5887 55.1196 16.3788 54.9311 16.1075C54.7427 15.8363 54.6484 15.5136 54.6484 15.1395H55.4708C55.4708 15.4679 55.6007 15.742 55.8606 15.9619C56.1205 16.1789 56.4503 16.2874 56.85 16.2874C57.2983 16.2874 57.6553 16.1832 57.9208 15.9747C58.1893 15.7663 58.3235 15.4907 58.3235 15.1481C58.3235 14.4171 57.8709 14.0444 56.9657 14.0301H56.1947V13.3534H56.9614C57.3783 13.3448 57.6938 13.2506 57.908 13.0707C58.1222 12.8908 58.2292 12.6367 58.2292 12.3083Z" fill="black"/>
<path d="M62.9751 16.8699C62.9294 16.7786 62.8923 16.6158 62.8637 16.3817C62.4954 16.7643 62.0556 16.9556 61.5445 16.9556C61.0876 16.9556 60.7121 16.8271 60.418 16.5701C60.1267 16.3103 59.9811 15.9819 59.9811 15.585C59.9811 15.1024 60.1638 14.7283 60.5294 14.4628C60.8977 14.1943 61.4146 14.0601 62.0799 14.0601H62.8509V13.696C62.8509 13.4191 62.7681 13.1992 62.6025 13.0364C62.4368 12.8708 62.1927 12.788 61.87 12.788C61.5873 12.788 61.3503 12.8594 61.159 13.0022C60.9677 13.1449 60.872 13.3177 60.872 13.5204H60.0753C60.0753 13.2891 60.1567 13.0664 60.3195 12.8522C60.4851 12.6352 60.7078 12.4639 60.9877 12.3383C61.2704 12.2126 61.5802 12.1498 61.9171 12.1498C62.4511 12.1498 62.8694 12.284 63.1721 12.5524C63.4748 12.818 63.6319 13.1849 63.6433 13.6532V15.7863C63.6433 16.2117 63.6975 16.5501 63.806 16.8014V16.8699H62.9751ZM61.6601 16.266C61.9086 16.266 62.1441 16.2018 62.3669 16.0733C62.5896 15.9448 62.7509 15.7777 62.8509 15.5721V14.6212H62.2298C61.2589 14.6212 60.7735 14.9054 60.7735 15.4736C60.7735 15.722 60.8563 15.9162 61.0219 16.0561C61.1875 16.196 61.4003 16.266 61.6601 16.266Z" fill="black"/>
<path d="M67.8794 12.8908H65.7421V16.8699H64.9454V12.2355H67.8794V12.8908Z" fill="black"/>
<path d="M72.4839 14.6041C72.4839 15.3094 72.3226 15.8777 71.9999 16.3088C71.6772 16.74 71.2404 16.9556 70.6892 16.9556C70.1267 16.9556 69.6841 16.7771 69.3614 16.4202V18.6518H68.569V12.2355H69.2929L69.3315 12.7494C69.6541 12.3497 70.1024 12.1498 70.6764 12.1498C71.2332 12.1498 71.673 12.3597 71.9956 12.7794C72.3212 13.1992 72.4839 13.7831 72.4839 14.5313V14.6041ZM71.6915 14.5142C71.6915 13.9916 71.5802 13.579 71.3574 13.2763C71.1347 12.9736 70.8292 12.8223 70.4408 12.8223C69.9611 12.8223 69.6013 13.035 69.3614 13.4605V15.6749C69.5984 16.0975 69.9611 16.3088 70.4494 16.3088C70.8292 16.3088 71.1304 16.1589 71.3532 15.8591C71.5787 15.5564 71.6915 15.1081 71.6915 14.5142Z" fill="black"/>
<path d="M74.9597 15.7092L76.039 12.2355H76.8871L75.0239 17.5852C74.7355 18.3562 74.2772 18.7417 73.649 18.7417L73.4991 18.7289L73.2035 18.6732V18.0307L73.4177 18.0478C73.6861 18.0478 73.8946 17.9936 74.043 17.8851C74.1944 17.7766 74.3186 17.5781 74.4157 17.2897L74.5913 16.8185L72.938 12.2355H73.8032L74.9597 15.7092Z" fill="black"/>
<path d="M80.1467 13.5033C80.1467 13.2863 80.0639 13.115 79.8983 12.9893C79.7326 12.8608 79.5056 12.7966 79.2172 12.7966C78.9374 12.7966 78.7032 12.8694 78.5148 13.015C78.3292 13.1606 78.2363 13.332 78.2363 13.529H77.4482C77.4482 13.1264 77.6167 12.7966 77.9537 12.5396C78.2906 12.2826 78.7118 12.1541 79.2172 12.1541C79.7598 12.1541 80.1824 12.2712 80.4851 12.5053C80.7877 12.7366 80.9391 13.0678 80.9391 13.499C80.9391 13.7075 80.8763 13.8988 80.7506 14.073C80.625 14.2472 80.4465 14.3857 80.2152 14.4885C80.7549 14.6712 81.0248 15.031 81.0248 15.5678C81.0248 15.9933 80.8606 16.3303 80.5322 16.5787C80.2038 16.8271 79.7655 16.9513 79.2172 16.9513C78.6832 16.9513 78.2421 16.8214 77.8937 16.5615C77.5482 16.2988 77.3754 15.9448 77.3754 15.4993H78.1635C78.1635 15.7249 78.2635 15.9191 78.4634 16.0818C78.6661 16.2417 78.9174 16.3217 79.2172 16.3217C79.5199 16.3217 79.764 16.2517 79.9497 16.1118C80.1353 15.9719 80.2281 15.7906 80.2281 15.5678C80.2281 15.308 80.1495 15.1224 79.9925 15.011C79.8383 14.8968 79.597 14.8397 79.2686 14.8397H78.4762V14.1715H79.3371C79.8768 14.1572 80.1467 13.9345 80.1467 13.5033Z" fill="black"/>
<path d="M85.051 12.2355H85.8434V16.8699H85.051V13.4905L82.9137 16.8699H82.1213V12.2355H82.9137V15.6192L85.051 12.2355Z" fill="black"/>
<path d="M90.5593 12.8779H89.0045V16.8699H88.2121V12.8779H86.6872V12.2355H90.5593V12.8779Z" fill="black"/>
<path d="M92.9108 16.9556C92.2826 16.9556 91.7715 16.75 91.3774 16.3388C90.9833 15.9248 90.7863 15.3722 90.7863 14.6812V14.5356C90.7863 14.0758 90.8734 13.6661 91.0476 13.3063C91.2246 12.9436 91.4702 12.6609 91.7843 12.4582C92.1013 12.2526 92.4439 12.1498 92.8123 12.1498C93.4148 12.1498 93.8831 12.3482 94.2172 12.7452C94.5513 13.1421 94.7183 13.7103 94.7183 14.4499V14.7797H91.5787C91.5901 15.2366 91.7229 15.6064 91.977 15.8891C92.234 16.1689 92.5596 16.3088 92.9536 16.3088C93.2335 16.3088 93.4705 16.2517 93.6646 16.1375C93.8588 16.0233 94.0287 15.8719 94.1744 15.6835L94.6584 16.0604C94.27 16.6572 93.6875 16.9556 92.9108 16.9556ZM92.8123 12.8008C92.4925 12.8008 92.224 12.9179 92.007 13.1521C91.79 13.3834 91.6558 13.7089 91.6044 14.1287H93.9259V14.0687C93.9031 13.6661 93.7946 13.3548 93.6004 13.1349C93.4062 12.9122 93.1435 12.8008 92.8123 12.8008Z" fill="black"/>
<path d="M97.8879 16.8699V12.2355H99.6955C100.312 12.2355 100.785 12.344 101.113 12.561C101.444 12.7751 101.61 13.0907 101.61 13.5076C101.61 13.7217 101.546 13.9159 101.417 14.0901C101.289 14.2614 101.099 14.3928 100.848 14.4842C101.128 14.5498 101.352 14.6783 101.52 14.8697C101.691 15.061 101.777 15.2894 101.777 15.555C101.777 15.9805 101.62 16.306 101.306 16.5316C100.995 16.7572 100.554 16.8699 99.9825 16.8699H97.8879ZM98.6803 14.8354V16.2317H99.991C100.322 16.2317 100.569 16.1703 100.732 16.0476C100.898 15.9248 100.98 15.752 100.98 15.5293C100.98 15.0667 100.641 14.8354 99.961 14.8354H98.6803ZM98.6803 14.2015H99.704C100.446 14.2015 100.818 13.9845 100.818 13.5504C100.818 13.1164 100.466 12.8922 99.764 12.8779H98.6803V14.2015Z" fill="black"/>
</svg>
