<svg width="42" height="53" viewBox="0 0 42 53" fill="none" xmlns="http://www.w3.org/2000/svg">
<path d="M22.3226 0.172103C21.8858 -0.0900022 21.3179 -0.0463176 20.8811 0.259472L9.74158 7.77316H1.39789C0.611579 7.77316 0 8.38474 0 9.17105V21.4026C0 22.1889 0.611579 22.8005 1.39789 22.8005H9.74158L20.8811 30.3142C21.0995 30.4889 21.4053 30.5326 21.6674 30.5326C21.8858 30.5326 22.1042 30.4889 22.3226 30.3579C22.7595 30.0958 23.0653 29.6589 23.0653 29.1347V1.39526C23.0216 0.914735 22.7595 0.434208 22.3226 0.172103ZM2.75211 10.5689H8.73684V20.0047H2.75211V10.5689ZM20.2695 26.5574L11.5326 20.66V9.91368L20.2695 4.01631V26.5574Z" fill="white"/>
<path d="M26.4287 10.2194C25.8171 10.6563 25.6423 11.5299 26.1229 12.1415C26.7781 13.0589 27.1276 14.151 27.1276 15.2868C27.1276 16.4226 26.7781 17.5147 26.1229 18.4321C25.686 19.0436 25.8171 19.9173 26.4287 20.3542C26.6908 20.5289 26.9529 20.6163 27.215 20.6163C27.6518 20.6163 28.0887 20.3978 28.3508 20.0484C29.3555 18.6505 29.8797 16.9905 29.8797 15.2868C29.8797 13.5831 29.3555 11.9231 28.3508 10.5252C27.9139 9.91363 27.0402 9.7389 26.4287 10.2194Z" fill="white"/>
<path d="M32.4134 6.28792C31.9328 5.72002 31.0592 5.63265 30.4476 6.11318C29.8797 6.59371 29.7923 7.46739 30.2729 8.07897C31.9765 10.0884 32.8939 12.6658 32.8939 15.2869C32.8939 17.9079 31.9765 20.4853 30.2729 22.4948C29.7923 23.0627 29.8797 23.9363 30.4476 24.4606C30.7097 24.679 31.0155 24.7663 31.3213 24.7663C31.7144 24.7663 32.1076 24.5916 32.3697 24.2858C34.4665 21.7521 35.6023 18.5632 35.6023 15.2869C35.6897 12.0105 34.5539 8.8216 32.4134 6.28792Z" fill="white"/>
<path d="M36.5201 2.13793C35.9959 1.57003 35.1222 1.52635 34.5543 2.00688C33.9864 2.53109 33.9428 3.40477 34.4233 3.97267C37.1754 7.07424 38.7043 11.0932 38.7043 15.2869C38.7043 19.4369 37.1754 23.4558 34.4233 26.6011C33.8991 27.169 33.9864 28.0427 34.5543 28.5669C34.8164 28.7853 35.1659 28.9163 35.4717 28.9163C35.8649 28.9163 36.258 28.7416 36.5201 28.4358C39.7091 24.81 41.5001 20.1358 41.5001 15.2869C41.5001 10.4379 39.7528 5.76372 36.5201 2.13793Z" fill="white"/>
<path d="M4.092 51V41.9H8.317C9.36567 41.9 10.1587 42.1687 10.696 42.706C11.112 43.122 11.32 43.6463 11.32 44.279C11.32 45.137 10.9213 45.7913 10.124 46.242C10.6873 46.4587 11.112 46.7447 11.398 47.1C11.684 47.4467 11.827 47.9147 11.827 48.504C11.827 49.3187 11.5237 49.9383 10.917 50.363C10.3103 50.7877 9.47833 51 8.421 51H4.092ZM6.042 45.579H7.888C8.85 45.579 9.331 45.2497 9.331 44.591C9.331 44.2877 9.21833 44.058 8.993 43.902C8.76767 43.7373 8.44267 43.655 8.018 43.655H6.042V45.579ZM6.042 49.245H8.421C9.36567 49.245 9.838 48.907 9.838 48.231C9.838 47.5723 9.344 47.243 8.356 47.243H6.042V49.245ZM13.7338 51V41.9H15.7358V45.878L19.4278 41.9H21.8458L18.1408 45.761L22.0148 51H19.6098L16.7888 47.126L15.7358 48.218V51H13.7338ZM24.6989 41.9H31.1989V51H29.1969V43.707H26.5709V44.396C26.5709 46.1727 26.4626 47.5507 26.2459 48.53C26.0379 49.5093 25.7303 50.1853 25.3229 50.558C24.9156 50.9307 24.3479 51.117 23.6199 51.117C23.2126 51.117 22.8616 51.078 22.5669 51L22.6969 49.349C22.8183 49.3663 22.9223 49.375 23.0089 49.375C23.3036 49.375 23.5419 49.3143 23.7239 49.193C23.9146 49.063 24.0879 48.8073 24.2439 48.426C24.4086 48.0447 24.5256 47.477 24.5949 46.723C24.6643 45.9603 24.6989 44.981 24.6989 43.785V41.9ZM33.3536 51V48.92H35.4596V51H33.3536Z" fill="white"/>
</svg>
