<svg width="46" height="59" viewBox="0 0 46 59" fill="none" xmlns="http://www.w3.org/2000/svg">
<path d="M1.092 57V47.9H5.317C6.36567 47.9 7.15867 48.1687 7.696 48.706C8.112 49.122 8.32 49.6463 8.32 50.279C8.32 51.137 7.92133 51.7913 7.124 52.242C7.68733 52.4587 8.112 52.7447 8.398 53.1C8.684 53.4467 8.827 53.9147 8.827 54.504C8.827 55.3187 8.52367 55.9383 7.917 56.363C7.31033 56.7877 6.47833 57 5.421 57H1.092ZM3.042 51.579H4.888C5.85 51.579 6.331 51.2497 6.331 50.591C6.331 50.2877 6.21833 50.058 5.993 49.902C5.76767 49.7373 5.44267 49.655 5.018 49.655H3.042V51.579ZM3.042 55.245H5.421C6.36567 55.245 6.838 54.907 6.838 54.231C6.838 53.5723 6.344 53.243 5.356 53.243H3.042V55.245ZM10.7338 57V47.9H12.7358V50.994H14.6728C15.7128 50.994 16.5275 51.2627 17.1168 51.8C17.7062 52.3287 18.0008 53.0437 18.0008 53.945C18.0008 54.881 17.6888 55.6263 17.0648 56.181C16.4495 56.727 15.6088 57 14.5428 57H10.7338ZM14.5038 52.71H12.7358V55.193H14.5168C15.5135 55.193 16.0118 54.7683 16.0118 53.919C16.0118 53.113 15.5092 52.71 14.5038 52.71ZM19.0148 57V47.9H21.0168V57H19.0148ZM23.4606 57V47.9H25.4626V51.878L29.1546 47.9H31.5726L27.8676 51.761L31.7416 57H29.3366L26.5156 53.126L25.4626 54.218V57H23.4606ZM34.4257 47.9H40.9257V57H38.9237V49.707H36.2977V50.396C36.2977 52.1727 36.1894 53.5507 35.9727 54.53C35.7647 55.5093 35.4571 56.1853 35.0497 56.558C34.6424 56.9307 34.0747 57.117 33.3467 57.117C32.9394 57.117 32.5884 57.078 32.2937 57L32.4237 55.349C32.5451 55.3663 32.6491 55.375 32.7357 55.375C33.0304 55.375 33.2687 55.3143 33.4507 55.193C33.6414 55.063 33.8147 54.8073 33.9707 54.426C34.1354 54.0447 34.2524 53.477 34.3217 52.723C34.3911 51.9603 34.4257 50.981 34.4257 49.785V47.9ZM43.0804 57V54.92H45.1864V57H43.0804Z" fill="white"/>
<path d="M22.4697 9.72632V14.8547L25.255 17.64V7.1179C25.255 6.58737 24.9897 6.14527 24.5034 5.88C24.0613 5.65895 23.4865 5.65895 23.0886 5.96842L17.4297 9.81474L19.4192 11.8042L22.4697 9.72632Z" fill="white"/>
<path d="M29.3221 21C29.3221 21.2211 29.3221 21.4421 29.2779 21.6632L31.5768 23.9621C31.9305 23.0337 32.1074 22.0611 32.1074 21.0442C32.1074 19.32 31.5768 17.6842 30.56 16.2695C30.1179 15.6506 29.2337 15.5179 28.6147 15.96C27.9958 16.4021 27.8631 17.2864 28.3053 17.9053C28.9684 18.7895 29.3221 19.8506 29.3221 21Z" fill="white"/>
<path d="M35.1135 21C35.1135 22.8126 34.6714 24.6252 33.8314 26.2168L35.8651 28.2505C37.1914 26.0842 37.8988 23.5642 37.8988 21C37.8988 17.7284 36.7493 14.5452 34.6272 12.0252C34.1409 11.4505 33.2567 11.3621 32.682 11.8484C32.1072 12.3347 32.0188 13.2189 32.5051 13.7936C34.1851 15.8273 35.1135 18.3473 35.1135 21Z" fill="white"/>
<path d="M40.9499 21C40.9499 24.4042 39.9331 27.6758 38.0762 30.461L40.0657 32.4505C42.4531 29.1347 43.7352 25.1115 43.7352 21C43.7352 16.1368 41.9668 11.4947 38.7394 7.86944C38.2089 7.2947 37.3689 7.25049 36.7941 7.73681C36.2194 8.22312 36.1752 9.10733 36.6615 9.68207C39.4468 12.821 40.9499 16.8442 40.9499 21Z" fill="white"/>
<path d="M43.5579 39.6126L4.34316 0.397895C3.81263 -0.132632 2.92842 -0.132632 2.39789 0.397895C1.86737 0.928421 1.86737 1.81263 2.39789 2.34316L12.8758 12.8211L11.9032 13.4842H3.59158C2.79579 13.4842 2.17684 14.1032 2.17684 14.8989V27.1453C2.17684 27.8968 2.79579 28.5158 3.59158 28.5158H11.9032L23.0884 36.0316C23.3095 36.2084 23.5747 36.2526 23.8842 36.2526C24.1053 36.2526 24.3263 36.2084 24.5474 36.0758C24.9895 35.8105 25.2989 35.3684 25.2989 34.8379V25.2442L41.6568 41.6021C41.9221 41.8674 42.2758 42 42.6295 42C42.9832 42 43.3368 41.8674 43.6021 41.6021C44.0884 41.0716 44.0884 40.1874 43.5579 39.6126ZM10.9747 25.7305H4.96211V16.2695H10.9747V25.7305ZM22.4695 32.2737L13.7158 26.3937V15.6063L14.8211 14.8547L22.4253 22.4589V32.2737H22.4695Z" fill="white"/>
</svg>
