<svg width="16" height="16" viewBox="0 0 16 16" fill="none" xmlns="http://www.w3.org/2000/svg">
<path d="M8 0.25C3.58171 0.25 0 3.71978 0 8C0 12.2802 3.58171 15.75 8 15.75C12.4183 15.75 16 12.2802 16 8C16 3.71978 12.4183 0.25 8 0.25ZM11.7081 5.52063C11.5877 6.74609 11.0668 9.71994 10.8017 11.0925C10.6895 11.6732 10.4687 11.868 10.255 11.887C9.79045 11.9285 9.43761 11.5896 8.98765 11.3039C8.28355 10.8567 7.88577 10.5784 7.20229 10.1421C6.41245 9.63787 6.92448 9.36084 7.37461 8.90772C7.49242 8.78919 9.53935 6.98553 9.57897 6.82191C9.5839 6.80144 9.58865 6.72503 9.54174 6.68491C9.49484 6.64478 9.42594 6.65838 9.3761 6.66928C9.30549 6.68482 8.18068 7.40505 6.00164 8.82997C5.6824 9.04234 5.39321 9.14582 5.1341 9.14041C4.84845 9.13444 4.299 8.98397 3.89052 8.85531C3.38952 8.69756 2.99132 8.61416 3.026 8.34622C3.04406 8.20664 3.24245 8.06393 3.62116 7.91809C5.95333 6.93376 7.50847 6.2848 8.28658 5.97122C10.5083 5.076 10.9699 4.9205 11.2708 4.91531C11.337 4.91425 11.485 4.93013 11.5808 5.00547C11.6446 5.05914 11.6852 5.13404 11.6947 5.21534C11.7109 5.3163 11.7154 5.4187 11.7081 5.52063V5.52063Z" fill="white"/>
</svg>
