<?xml version="1.0" encoding="utf-8"?>
<svg version="1.1" id="Capa_1" xmlns="http://www.w3.org/2000/svg" xmlns:xlink="http://www.w3.org/1999/xlink" x="0px" y="0px"
	 viewBox="0 0 88 88" style="enable-background:new 0 0 88 88;" xml:space="preserve">
<g>
	<g>
		<path class="st0" d="M88,44c0,1.4-1.4,2.4-1.4,2.4L49.3,71.1c-2.9,1.9-5.2,0.5-5.2-3.1V20c0-3.6,2.3-5,5.2-3.1l37.3,24.8
			C86.6,41.6,88,42.6,88,44z M42.6,44c0,1.4-1.4,2.4-1.4,2.4l-36,24.8C2.3,73.1,0,71.6,0,68V20c0-3.6,2.3-5,5.2-3.1l36,24.8
			C41.2,41.6,42.6,42.6,42.6,44z"/>
	</g>
</g>
</svg>
