<?xml version="1.0" ?><svg viewBox="0 0 512 512" xmlns="http://www.w3.org/2000/svg"><g id="Celebration"><path d="M289.9563,293.3057a7.9763,7.9763,0,0,0,5.6572-2.3433,138.7781,138.7781,0,0,1,91.6953-40.5718l1.22-.0581a8,8,0,1,0-.76-15.9814l-1.2227.0581a154.7474,154.7474,0,0,0-102.2471,45.24,8,8,0,0,0,5.6573,13.6568Z"/><path d="M226.925,230.2739a7.976,7.976,0,0,0,5.6572-2.3432,154.754,154.754,0,0,0,45.2393-102.2452l.0586-1.22a8,8,0,0,0-15.9824-.7675l-.0586,1.2221a138.7792,138.7792,0,0,1-40.5713,91.6973,8,8,0,0,0,5.6572,13.6567Z"/><path d="M180.4768,218.62a8,8,0,0,0-12.9649,2.4009L76.61,425.0571a8,8,0,0,0,10.5635,10.5635L291.21,344.7183a8,8,0,0,0,2.4013-12.9644ZM99.7121,412.5181l30.4291-68.3,18.3278,45.7661c.0926.2314.198.4537.3017.6771Zm73.7136-32.8409L145.46,309.834,165.0651,265.83,205.02,365.6013Zm56.2762-25.0721-42.84-106.9734,87.2068,87.2072Z"/><path d="M164.0617,131.8a8.179,8.179,0,1,0-8.1787-8.1792A8.1881,8.1881,0,0,0,164.0617,131.8Z"/><path d="M164.0617,108.4072a8,8,0,0,0,8-8V83.687a8,8,0,1,0-16,0v16.72A8,8,0,0,0,164.0617,108.4072Z"/><path d="M164.0617,138.835a8,8,0,0,0-8,8v16.7207a8,8,0,0,0,16,0V146.835A8,8,0,0,0,164.0617,138.835Z"/><path d="M124.1272,131.6211h16.7207a8,8,0,0,0,0-16H124.1272a8,8,0,1,0,0,16Z"/><path d="M187.2756,131.6211h16.7207a8,8,0,0,0,0-16H187.2756a8,8,0,1,0,0,16Z"/><path d="M374.7531,148.3745a8.179,8.179,0,1,0-8.1787-8.1792A8.1882,8.1882,0,0,0,374.7531,148.3745Z"/><path d="M374.7531,124.9814a8,8,0,0,0,8-8v-16.72a8,8,0,0,0-16,0v16.72A8,8,0,0,0,374.7531,124.9814Z"/><path d="M374.7531,155.4092a8,8,0,0,0-8,8V180.13a8,8,0,1,0,16,0V163.4092A8,8,0,0,0,374.7531,155.4092Z"/><path d="M334.82,148.1953h16.72a8,8,0,0,0,0-16H334.82a8,8,0,0,0,0,16Z"/><path d="M422.6877,140.1953a8,8,0,0,0-8-8H397.967a8,8,0,0,0,0,16h16.7207A8,8,0,0,0,422.6877,140.1953Z"/><path d="M388.1486,359.356a8.179,8.179,0,1,0,8.1788,8.1792A8.1881,8.1881,0,0,0,388.1486,359.356Z"/><path d="M388.1486,319.6006a8,8,0,0,0-8,8v16.7207a8,8,0,1,0,16,0V327.6006A8,8,0,0,0,388.1486,319.6006Z"/><path d="M388.1486,382.749a8,8,0,0,0-8,8v16.72a8,8,0,0,0,16,0v-16.72A8,8,0,0,0,388.1486,382.749Z"/><path d="M364.9348,359.5352H348.2141a8,8,0,0,0,0,16h16.7207a8,8,0,0,0,0-16Z"/><path d="M428.0832,359.5352H411.3625a8,8,0,0,0,0,16h16.7207a8,8,0,0,0,0-16Z"/></g></svg>