<svg width="17" height="17" viewBox="0 0 17 17" fill="none" xmlns="http://www.w3.org/2000/svg">
    <path d="M8.50002 1.4165C4.59416 1.4165 1.41669 4.59397 1.41669 8.49984C1.41669 12.4054 4.59416 15.5832 8.50002 15.5832C12.4055 15.5832 15.5834 12.4054 15.5834 8.49984C15.5834 4.59397 12.4055 1.4165 8.50002 1.4165ZM8.50002 14.1665C5.37547 14.1665 2.83335 11.6244 2.83335 8.49984C2.83335 5.37529 5.37547 2.83317 8.50002 2.83317C11.6246 2.83317 14.1667 5.37529 14.1667 8.49984C14.1667 11.6244 11.6246 14.1665 8.50002 14.1665ZM11.3334 8.49984C11.3334 8.89101 11.0165 9.20817 10.625 9.20817H8.50002C8.10885 9.20817 7.79169 8.89101 7.79169 8.49984V5.6665C7.79169 5.27533 8.10885 4.95817 8.50002 4.95817C8.8912 4.95817 9.20835 5.27533 9.20835 5.6665V7.7915H10.625C11.0165 7.7915 11.3334 8.10866 11.3334 8.49984Z" fill="#A4A4A4"/>
</svg>
