<svg width="17" height="18" viewBox="0 0 17 18" fill="none" xmlns="http://www.w3.org/2000/svg">
    <path d="M16.1486 3.16608H15.5642C14.8441 3.16608 14.3021 2.51373 14.0749 1.83036C13.932 1.40051 13.6961 1.00746 13.3839 0.679203C13.1698 0.464948 12.9155 0.294985 12.6357 0.179025C12.3558 0.0630652 12.0559 0.00338025 11.7529 0.00338025C11.45 0.00338025 11.15 0.0630652 10.8702 0.179025C10.5903 0.294985 10.3361 0.464948 10.1219 0.679203C9.10608 1.7546 7.38147 1.7384 6.369 0.659825C5.93788 0.236912 5.35806 0 4.75414 0C4.15022 0 3.5704 0.236912 3.13928 0.659825C2.81523 0.985631 2.56816 1.37979 2.41615 1.81345C2.17372 2.50509 1.62085 3.16608 0.887954 3.16608H0.645943C0.474628 3.16608 0.31033 3.23414 0.189192 3.35528C0.0680545 3.47641 0 3.64071 0 3.81203V6.3958C0 6.56711 0.0680545 6.73141 0.189192 6.85255C0.31033 6.97369 0.474628 7.04174 0.645943 7.04174C1.00269 7.04174 1.29189 7.33094 1.29189 7.68768V16.7309C1.29189 16.9022 1.35994 17.0665 1.48108 17.1876C1.60222 17.3088 1.76651 17.3768 1.93783 17.3768H14.8567C15.028 17.3768 15.1923 17.3088 15.3134 17.1876C15.4346 17.0665 15.5026 16.9022 15.5026 16.7309V7.68768C15.5026 7.33094 15.7918 7.04174 16.1486 7.04174C16.3199 7.04174 16.4842 6.97369 16.6053 6.85255C16.7265 6.73141 16.7945 6.56711 16.7945 6.3958V3.81203C16.7945 3.64071 16.7265 3.47641 16.6053 3.35528C16.4842 3.23414 16.3199 3.16608 16.1486 3.16608ZM11.0133 1.59644C11.1069 1.5025 11.2182 1.42796 11.3407 1.3771C11.4632 1.32624 11.5945 1.30006 11.7271 1.30006C11.8597 1.30006 11.991 1.32624 12.1135 1.3771C12.236 1.42796 12.3472 1.5025 12.4409 1.59644C12.6332 1.80435 12.7724 2.05566 12.8466 2.32896C12.976 2.80542 12.5154 3.16608 12.0217 3.16608H11.6909C10.8747 3.16608 10.4535 2.19048 11.0133 1.59644ZM3.99839 1.59644C4.18692 1.41064 4.44099 1.30649 4.70569 1.30649C4.9704 1.30649 5.22447 1.41064 5.413 1.59644C5.97567 2.18834 5.5561 3.16608 4.73944 3.16608H4.41757C3.92384 3.16608 3.46324 2.80542 3.59265 2.32896C3.66688 2.05566 3.80608 1.80435 3.99839 1.59644ZM1.29189 5.10391C1.29189 4.74717 1.58108 4.45797 1.93783 4.45797H7.10537C7.46212 4.45797 7.75132 4.74717 7.75132 5.10391C7.75132 5.46066 7.46212 5.74986 7.10537 5.74986H1.93783C1.58108 5.74986 1.29189 5.46066 1.29189 5.10391ZM2.58377 9.62551C2.58377 8.19853 3.74057 7.04174 5.16754 7.04174C6.59452 7.04174 7.75132 8.19854 7.75132 9.62551V13.5012C7.75132 14.9281 6.59452 16.0849 5.16754 16.0849C3.74057 16.0849 2.58377 14.9281 2.58377 13.5012V9.62551ZM14.2107 13.5012C14.2107 14.9281 13.054 16.0849 11.627 16.0849C10.2 16.0849 9.0432 14.9281 9.0432 13.5012V9.62551C9.0432 8.19853 10.2 7.04174 11.627 7.04174C13.054 7.04174 14.2107 8.19854 14.2107 9.62551V13.5012ZM15.5026 5.10391C15.5026 5.46066 15.2134 5.74986 14.8567 5.74986H9.68915C9.3324 5.74986 9.0432 5.46066 9.0432 5.10391C9.0432 4.74717 9.3324 4.45797 9.68915 4.45797H14.8567C15.2134 4.45797 15.5026 4.74717 15.5026 5.10391Z" fill="url(#paint0_linear_798_762)"/>
    <defs>
        <linearGradient id="paint0_linear_798_762" x1="0.54831" y1="8.68842" x2="16.4696" y2="8.68842" gradientUnits="userSpaceOnUse">
            <stop stop-color="#E43932"/>
            <stop offset="1" stop-color="#7827F6"/>
        </linearGradient>
    </defs>
</svg>
