<?xml version="1.0" encoding="utf-8"?>
<!-- Generator: Adobe Illustrator 25.2.3, SVG Export Plug-In . SVG Version: 6.00 Build 0)  -->
<svg version="1.1" id="Слой_1" xmlns="http://www.w3.org/2000/svg" xmlns:xlink="http://www.w3.org/1999/xlink" x="0px" y="0px"
	 viewBox="0 0 33 33" style="enable-background:new 0 0 33 33;" xml:space="preserve">
<style type="text/css">
	.st0{fill:url(#SVGID_1_);}
</style>
<linearGradient id="SVGID_1_" gradientUnits="userSpaceOnUse" x1="1.5391" y1="16.5" x2="32.3111" y2="16.5">
	<stop  offset="0" style="stop-color:#FC4000"/>
	<stop  offset="1" style="stop-color:#780AFA"/>
</linearGradient>
<path class="st0" d="M29.1,24.7l-6.2-3.2C22,21,21,21.3,20.4,22l-2.3,2.9c-2.2-1.2-3.9-2.3-5.8-4.3c-2.1-2.1-3.2-3.8-4.3-5.9
	l2.9-2.3c0.8-0.6,1-1.7,0.6-2.5L8.2,3.8C7.7,2.8,6.3,2.4,5.3,3.1L1.4,5.7C0.5,6.3-0.1,7.4,0,8.4c0.1,1.1,0.2,2.5,0.5,3.5
	c1.1,4.4,3.9,8.9,7.8,12.8c3.8,3.8,8.4,6.6,12.8,7.8c1,0.2,2.4,0.4,3.5,0.5c1.1,0.1,2.2-0.5,2.8-1.4l2.6-4
	C30.5,26.6,30.1,25.2,29.1,24.7z M16.6,12.9c0.8,0.2,1.5,0.6,2.1,1.2c0.6,0.6,1,1.4,1.2,2.1c0.2,0.6,0.8,1,1.4,1h0.1
	c0.9,0,1.6-0.9,1.3-1.8c-0.3-1.2-1-2.5-2-3.4c-1-1-2.2-1.7-3.4-2c-0.9-0.2-1.7,0.4-1.8,1.3v0.1C15.5,12.2,16,12.8,16.6,12.9z M17,8
	c1.9,0.3,3.7,1.2,5.2,2.7c1.5,1.5,2.4,3.3,2.7,5.2c0.1,0.7,0.8,1.2,1.5,1.2h0.1c0.9,0,1.5-0.8,1.3-1.7c-0.5-2.5-1.6-4.9-3.5-6.8
	C22.3,6.6,20,5.4,17.5,5c-0.8-0.1-1.6,0.5-1.7,1.3v0.1C15.8,7.2,16.3,7.8,17,8z M32.9,15.2c-0.5-3.7-2.2-7.3-5-10.1
	C25,2.2,21.4,0.5,17.7,0c-0.8-0.1-1.6,0.5-1.6,1.4v0.1c0,0.8,0.5,1.4,1.2,1.5c3.1,0.4,6,1.8,8.4,4.2c2.4,2.4,3.7,5.3,4.2,8.4
	c0.1,0.7,0.7,1.3,1.5,1.2h0.1C32.4,16.8,33,16,32.9,15.2z"/>
</svg>
