<svg width="24" height="24" viewBox="0 0 24 24" fill="none" xmlns="http://www.w3.org/2000/svg">
    <g clip-path="url(#clip0_1160_1511)">
        <path d="M12 16V16.01" stroke="#A4A4A4" stroke-width="2" stroke-linecap="round" stroke-linejoin="round"/>
        <path d="M12 12.9998C12.4483 12.9983 12.8832 12.8466 13.235 12.5687C13.5868 12.2909 13.8352 11.9031 13.9406 11.4673C14.0459 11.0315 14.0019 10.5731 13.8158 10.1652C13.6297 9.75738 13.3122 9.42376 12.914 9.21776C12.5162 9.01397 12.0611 8.95079 11.6228 9.03848C11.1845 9.12618 10.7888 9.3596 10.5 9.70076" stroke="#A4A4A4" stroke-width="2" stroke-linecap="round" stroke-linejoin="round"/>
        <path d="M12 21C16.9706 21 21 16.9706 21 12C21 7.02944 16.9706 3 12 3C7.02944 3 3 7.02944 3 12C3 16.9706 7.02944 21 12 21Z" stroke="#A4A4A4" stroke-width="2" stroke-linecap="round" stroke-linejoin="round"/>
    </g>
    <defs>
        <clipPath id="clip0_1160_1511">
            <rect width="24" height="24" fill="white"/>
        </clipPath>
    </defs>
</svg>
