<svg width="38" height="38" viewBox="0 0 38 38" fill="none" xmlns="http://www.w3.org/2000/svg">
    <path fill-rule="evenodd" clip-rule="evenodd" d="M12.0024 2.10627C14.221 1.18733 16.5988 0.714355 19.0001 0.714355C21.4014 0.714355 23.7792 1.18733 25.9977 2.10627C28.2162 3.02522 30.232 4.37213 31.93 6.07012C33.628 7.7681 34.9749 9.7839 35.8939 12.0024C36.8128 14.221 37.2858 16.5988 37.2858 19.0001C37.2858 21.4014 36.8128 23.7792 35.8939 25.9977C34.9749 28.2162 33.628 30.232 31.93 31.93C30.232 33.628 28.2162 34.9749 25.9977 35.8939C23.7792 36.8128 21.4014 37.2858 19.0001 37.2858C16.5988 37.2858 14.221 36.8128 12.0024 35.8939C9.78391 34.9749 7.7681 33.628 6.07012 31.93C4.37213 30.232 3.02522 28.2162 2.10627 25.9977C1.18733 23.7792 0.714355 21.4014 0.714355 19.0001C0.714355 16.5988 1.18733 14.221 2.10627 12.0024C3.02522 9.78391 4.37213 7.7681 6.07012 6.07012C7.7681 4.37213 9.78391 3.02522 12.0024 2.10627ZM19.0001 5.28578C17.1991 5.28578 15.4157 5.64051 13.7518 6.32972C12.0879 7.01893 10.5761 8.02912 9.3026 9.3026C8.02912 10.5761 7.01893 12.0879 6.32972 13.7518C5.64051 15.4157 5.28578 17.1991 5.28578 19.0001C5.28578 20.8011 5.64051 22.5844 6.32972 24.2483C7.01893 25.9122 8.02912 27.424 9.3026 28.6975C10.5761 29.971 12.0879 30.9812 13.7518 31.6704C15.4157 32.3596 17.1991 32.7144 19.0001 32.7144C20.8011 32.7144 22.5844 32.3596 24.2483 31.6704C25.9122 30.9812 27.424 29.971 28.6975 28.6975C29.971 27.424 30.9812 25.9122 31.6704 24.2483C32.3596 22.5844 32.7144 20.8011 32.7144 19.0001C32.7144 17.1991 32.3596 15.4157 31.6704 13.7518C30.9812 12.0879 29.971 10.5761 28.6975 9.3026C27.424 8.02912 25.9122 7.01893 24.2483 6.32972C22.5844 5.64051 20.8011 5.28578 19.0001 5.28578ZM19.0001 23.5713C20.2624 23.5713 21.2858 24.5946 21.2858 25.857V25.8808C21.2858 27.1432 20.2624 28.1665 19.0001 28.1665C17.7377 28.1665 16.7144 27.1432 16.7144 25.8808V25.857C16.7144 24.5946 17.7377 23.5713 19.0001 23.5713ZM21.2858 12.1431C21.2858 10.8808 20.2624 9.85742 19.0001 9.85742C17.7377 9.85742 16.7144 10.8808 16.7144 12.1431V19.0003C16.7144 20.2626 17.7377 21.286 19.0001 21.286C20.2624 21.286 21.2858 20.2626 21.2858 19.0003V12.1431Z" fill="url(#paint0_linear_1366_1350)"/>
    <defs>
        <linearGradient id="paint0_linear_1366_1350" x1="19.0001" y1="0.714355" x2="19.0001" y2="37.2858" gradientUnits="userSpaceOnUse">
            <stop stop-color="#E43932"/>
            <stop offset="1" stop-color="#7827F6"/>
        </linearGradient>
    </defs>
</svg>
