<?xml version="1.0" encoding="UTF-8"?><svg xmlns="http://www.w3.org/2000/svg" xmlns:xlink="http://www.w3.org/1999/xlink" viewBox="0 0 774.77 509.8"><defs><style>.f{fill:url(#e);}.g{fill:url(#d);}.h{fill:#fc4000;}.i{fill:#fff;}.j{fill:#780afa;}</style><linearGradient id="d" x1="68.41" y1="528.57" x2="638.54" y2="200.06" gradientTransform="matrix(1, 0, 0, 1, 0, 0)" gradientUnits="userSpaceOnUse"><stop offset="0" stop-color="#780afa"/><stop offset=".22" stop-color="#9214c8"/><stop offset=".71" stop-color="#d32f4c"/><stop offset="1" stop-color="#fc4000"/></linearGradient><linearGradient id="e" x1="28.63" y1="459.54" x2="598.77" y2="131.03" xlink:href="#d"/></defs><g id="a"/><g id="b"><g id="c"><g><path class="j" d="M764.62,196.59s.02,.01,.03,.02c-.02-.01-.04-.02-.05-.02h.02Z"/><g><path class="i" d="M465.45,389.7v-16.78l5.51-2.62v-1.32c0-7.06,1.37-12.96,4.1-17.7,2.79-4.84,6.99-8.59,12.61-11.26,4.36-2.07,8.01-3.26,10.94-3.55v15.08c-2.12,.17-4.21,.73-6.24,1.7-3.19,1.51-4.78,4.2-4.78,8.05v1.43l10.94-5.2v16.45l-10.67,5.07v43.86l-16.88,8.02v-43.86l-5.51,2.62Z"/><path class="i" d="M503.81,348.85v-15.79l17.62-8.37v15.79l-17.62,8.37Zm.39,66.29v-60.97l16.88-8.02v60.97l-16.88,8.02Z"/><path class="i" d="M527.72,360.27v-17.28l5.68-2.7v-15.41l16.88-8.02v15.41l11.2-5.32v17.28l-11.2,5.32v20.68c0,2.13,.38,3.51,1.13,4.12,.75,.62,1.92,.55,3.51-.21,2.05-.98,4.18-2.67,6.38-5.07v16.7c-3.33,3.91-7.23,6.94-11.72,9.07-5.27,2.5-9.28,2.81-12.04,.91-2.76-1.89-4.14-6.36-4.14-13.39v-24.79l-5.68,2.7Z"/><path class="i" d="M568.73,384.47v-60.97l16.88-8.02v8.64c4.12-8.63,8.92-14.25,14.41-16.86,5.09-2.42,9.09-2.32,12,.3,2.91,2.62,4.36,7.41,4.36,14.38v39.9l-16.88,8.02v-32.93c0-3.26-.62-5.48-1.85-6.67-1.23-1.19-2.88-1.29-4.94-.31-2.12,1.01-3.83,2.72-5.14,5.13-1.31,2.42-1.96,5.23-1.96,8.45v32.93l-16.88,8.02Z"/><path class="i" d="M623.1,328.2c0-4.4,.6-8.85,1.8-13.35,1.2-4.5,2.86-8.67,4.97-12.51,2.11-3.85,4.68-7.32,7.7-10.43,3.02-3.11,6.29-5.49,9.78-7.15,4.02-1.91,7.61-2.73,10.76-2.45,3.15,.28,5.7,1.51,7.64,3.69,1.94,2.18,3.41,5.01,4.4,8.5,1,3.49,1.5,7.52,1.5,12.11,0,1.95-.03,3.43-.09,4.44l-32.2,15.3c.67,3.02,1.9,4.97,3.71,5.86,1.81,.88,4.04,.69,6.71-.57,3.76-1.79,7.32-5.6,10.67-11.43l9.33,5.45c-5.12,10.61-12.09,18.01-20.92,22.21-5,2.38-9.46,3.17-13.37,2.39-3.91-.79-6.95-3.08-9.13-6.89-2.19-3.8-3.28-8.86-3.28-15.17Zm16.01-12.67l16.71-7.94c-.32-3.26-1.21-5.53-2.69-6.81-1.48-1.28-3.36-1.38-5.64-.29-2.17,1.03-4,2.9-5.49,5.61-1.49,2.71-2.45,5.85-2.89,9.43Z"/><path class="i" d="M675.17,325.97l6.34-15.98c5.55,1.89,11.06,1.54,16.53-1.06,2.83-1.35,4.25-3.14,4.25-5.39,0-1.07-.58-1.68-1.74-1.82-1.16-.15-3.15,0-5.99,.41-2.14,.3-3.96,.49-5.47,.57-1.5,.07-3.04-.05-4.6-.38-1.56-.33-2.81-.89-3.75-1.69-.94-.8-1.71-2-2.32-3.6-.61-1.6-.91-3.58-.91-5.93,0-6.46,1.78-12.33,5.34-17.62,3.56-5.29,8.2-9.3,13.93-12.02,3.53-1.68,7.03-2.7,10.5-3.06,3.47-.36,6.58-.04,9.33,.97l-5.77,16.33c-2.49-.49-5.01-.63-7.55-.4-2.55,.23-4.77,.8-6.68,1.7-1.27,.61-2.24,1.33-2.91,2.19-.67,.85-1,1.76-1,2.72,0,1.07,.57,1.68,1.71,1.83,1.14,.15,3.17,.07,6.1-.25,2.14-.27,3.96-.42,5.47-.46,1.5-.04,3.04,.11,4.6,.44,1.56,.33,2.81,.89,3.75,1.69,.94,.8,1.71,1.98,2.32,3.52,.61,1.55,.91,3.46,.91,5.75,0,6.66-1.76,12.62-5.29,17.86-3.53,5.25-8.3,9.3-14.32,12.16-8.59,4.08-16.19,4.6-22.78,1.54Z"/><path class="i" d="M720.82,304.27l6.34-15.98c5.55,1.89,11.06,1.54,16.53-1.06,2.83-1.35,4.25-3.14,4.25-5.39,0-1.07-.58-1.68-1.74-1.82-1.16-.15-3.15,0-5.99,.41-2.14,.3-3.96,.49-5.47,.57-1.5,.07-3.04-.05-4.6-.38-1.56-.33-2.81-.89-3.75-1.69-.94-.8-1.71-2-2.32-3.6-.61-1.6-.91-3.58-.91-5.93,0-6.46,1.78-12.33,5.34-17.63,3.56-5.29,8.2-9.3,13.93-12.02,3.53-1.68,7.03-2.7,10.5-3.06,3.47-.36,6.58-.04,9.33,.97l-5.77,16.33c-2.49-.49-5.01-.63-7.55-.4-2.54,.23-4.77,.8-6.68,1.7-1.27,.61-2.24,1.33-2.91,2.19-.67,.85-1,1.76-1,2.72,0,1.07,.57,1.68,1.71,1.83,1.14,.15,3.17,.07,6.1-.25,2.14-.27,3.96-.42,5.47-.46,1.5-.04,3.04,.11,4.6,.44,1.56,.33,2.81,.89,3.75,1.69,.94,.8,1.71,1.98,2.32,3.52,.61,1.55,.91,3.46,.91,5.75,0,6.66-1.76,12.62-5.29,17.87-3.53,5.25-8.3,9.3-14.32,12.16-8.59,4.08-16.19,4.6-22.78,1.54Z"/></g><path class="h" d="M774.74,201s.02,.01,.03,.02c-.02-.01-.04-.02-.05-.02h.02Z"/><g><polygon class="g" points="762.17 124.54 762.17 187.41 706.78 213.68 682.72 203.33 658.42 192.23 658.41 130.02 713.81 103.72 762.17 124.54"/><path class="f" d="M689.19,121.82V49.66l-30.64-13.21v-15.65h0L610.22,0l-55.38,26.27v43.38l-15.54,7.38v12.44l-13.36-5.82-55.39,26.27-10.93,4.88c-12.03,5.64-23.12,13.54-31.07,24.25l-10.46-4.55-55.41,26.3v12.96l-14.26-6.21-55.39,26.29v39.79c-1.42-.61-3.62-1.63-5.08-2.1-1.64-.68-14.72-6.52-16.09-6.88-6.47-2.59-16.91-8.34-23.99-8.46-20.75-.63-38.19,14.99-49.44,31.22h0l-9.56-4.16-55.39,26.27v25.22l-10.34-4.5c-15.5-4.56-32.2-2.02-47.34,3.25h0c-39.9,13.76-70.67,49.07-70.01,92.34-.17,7.9,1.14,15.05,3.81,20.82,2.54,5.11,6.26,8.76,10.81,10.72l32.24,13.92c-4.55-1.95,7.17,3,7.17,3-13.22,4.59-27.91,5.28-41.12,.79L0,484.79l16.16,7.04,.04-.1,16.05,6.99,.04-.1,16.05,6.99h0c21.96,8.42,46.09,3.21,68.02-7.25,6.92-2.79,13.05-6.47,19.33-11.34l46.18,19.87h0l55.39-26.27v-63.33c16.7,18.73,45.84,6.49,61.65-11.99,7.21-8.01,13.6-17.72,18.44-28.14l24.06,10.35h0l55.39-26.27v-12.97l14.26,6.21h0l55.38-26.27v-45.6l-.2-1.68,52.69,22.68,55.39-26.27v-26.49l28.91,12.47h0l55.38-26.27-.02-100.68,30.62-14.52Z"/></g><g><polygon class="i" points="658.56 64.17 689.18 49.66 689.19 121.82 658.58 136.34 658.6 237.02 603.22 263.28 603.2 162.63 587.65 170 587.63 97.83 603.18 90.45 603.18 47.07 658.55 20.8 658.56 64.17"/><polygon class="i" points="518.92 303.58 518.89 130.73 574.28 104.45 574.31 277.3 518.92 303.58"/><path class="i" d="M466.34,176.56c8.92-15.62,16.87-29.21,41.61-40.95v72.17l-5.81,2.76c-.31,.14-.61,.28-.92,.42-9.82,4.66-19.18,14.45-25.69,26.92-6.91,14.81-10.17,30.76-9.12,44.69v45.6l-55.37,26.27-.03-172.83,55.41-26.3-.08,21.25Z"/><polygon class="i" points="341.36 214.65 396.76 188.35 396.79 361.2 341.4 387.48 341.36 214.65"/><path class="i" d="M316.92,246.96c5.37,5.82,9.47,13.42,12.13,22.42,3.02,10.27,4.5,21.81,4.38,34.16v.67c.12,12.62-1.4,25.95-4.48,39.47-2.68,11.69-6.78,23.39-12.12,34.54-4.83,10.06-10.96,19.3-17.93,27.04-6.76,7.46-14.21,13.22-21.75,16.79-15.89,7.54-30.33,5.66-39.91-4.81v63.33l-55.38,26.27-.04-216.54,55.39-26.27v21.23c9.04-20.2,23.56-36.5,39.01-43.83,8.14-3.86,15.67-5.22,22.52-4.19,7.02,1.06,13.22,4.37,18.18,9.7Zm-35.29,82.43v-.85c-.38-16.84-11.39-25.1-24.73-18.77-.23,.11-.46,.22-.69,.34-13.66,6.97-24.41,26.48-24.04,43.62,.37,16.85,11.38,25.1,24.72,18.77,.23-.11,.46-.22,.69-.34,13.49-6.67,24.23-25.79,24.04-42.76"/><path class="i" d="M173.92,410.84v.64c.74,16.57-4.9,35.58-15.2,51.25-11.24,15.53-24.68,27.37-38.44,33.9-1.31,.62-2.62,1.19-3.93,1.72-.3,.15-.6,.29-.9,.43-12.05,5.72-24.05,9.28-35.65,10.58-11.19,1.22-21.81-.04-31.46-3.76l18.7-49.71c7.72,2.67,16.1,3.59,24.91,2.74,7.83-.66,15.98-2.93,24.17-6.7,5.32-2.52,8-5.73,8-9.51v-.64c-.23-1.98-1.35-3.22-2.91-3.2-4.15-.38-8.47-.19-12.88,.58-8.42,1.25-15.94,1.92-22.58,2.04-6.04,.19-11.77-.82-17-3.01-4.55-1.95-8.27-5.61-10.81-10.72-2.67-5.77-3.98-12.92-3.81-20.82v-.67c-.15-8.64,1.27-17.98,4.11-27.27,2.7-8.57,6.74-16.84,11.79-24.11,5.49-7.81,11.72-14.64,18.33-20.1,7.39-6.11,15.01-11.07,22.67-14.71,.3-.14,.6-.28,.9-.42,10.99-5.22,21.63-8.51,31.94-9.93,9.73-1.45,19.02-.89,27.62,1.61l-17.48,51.02c-7.03-1.67-14.49-2.11-22.24-1.31-6.49,.48-13.24,2.24-20.04,5.25-5.18,2.46-7.77,5.47-7.77,9.05v.64c.3,2.06,1.51,3.29,3.16,3.25,4.22,.38,8.61,.1,13.13-.84,8.41-1.24,15.94-1.92,22.58-2.04,6.04-.21,11.72,.88,16.89,3.23,4.43,2.06,8.06,5.76,10.56,10.82,2.58,5.8,3.85,12.89,3.66,20.73Z"/></g><polygon class="i" points="706.75 150.82 762.14 124.52 762.17 187.41 706.78 213.68 706.75 150.82"/></g></g></g></svg>