<svg xmlns="http://www.w3.org/2000/svg" width="94" height="38" viewBox="0 0 94 38" fill="white">
  <path id="Лого_" data-name="Лого " class="cls-1" d="M87.946,82.855a17.1,17.1,0,0,1-4.808-.656A14.583,14.583,0,0,1,79,80.261l2.46-4.236a12.794,12.794,0,0,0,3.276,1.51,11.264,11.264,0,0,0,3.179.493c0.7,0,1.054-.2,1.054-0.591V77.37a0.6,0.6,0,0,0-.384-0.476,9.6,9.6,0,0,0-1.694-.574q-1.661-.427-2.97-0.9a9.013,9.013,0,0,1-2.236-1.149,4.586,4.586,0,0,1-1.422-1.642,5.107,5.107,0,0,1-.5-2.348V70.212a6.065,6.065,0,0,1,.543-2.627,5.163,5.163,0,0,1,1.55-1.921,7.281,7.281,0,0,1,2.412-1.183,11.077,11.077,0,0,1,3.1-.41,16.2,16.2,0,0,1,4.2.542A13.515,13.515,0,0,1,95.2,66.139l-2.3,4.433a14.044,14.044,0,0,0-2.924-1.231,9.556,9.556,0,0,0-2.637-.442c-0.681,0-1.022.185-1.022,0.557v0.067a0.634,0.634,0,0,0,.416.491,8.469,8.469,0,0,0,1.725.559q1.66,0.427,2.971.9a8.427,8.427,0,0,1,2.22,1.166,4.688,4.688,0,0,1,1.39,1.642,5.15,5.15,0,0,1,.48,2.331v0.066a5.527,5.527,0,0,1-2,4.567A8.675,8.675,0,0,1,87.946,82.855Zm29.6-18.358h7.285V82.428h-7.285V64.5Zm9.163,0h7.284l-0.01,2.2c1.173-1.18,2.219-2.2,5.473-2.2v7.487h-0.766a4.506,4.506,0,0,0-3.5,1.527,6.015,6.015,0,0,0-1.2,4.187v4.73h-7.284V64.5Zm14.186,0.032h7.284V82.461h-7.284V64.53Zm18.37-.032V60h-7.284v4.5h-2.045v7.487h2.045V82.428h7.284V71.985h4.026V64.5h-4.026ZM173,82.461h-7.284V74.974H173v7.488ZM115.924,69.571a9.138,9.138,0,0,0-1.594-2.923,7.223,7.223,0,0,0-2.39-1.9,6.56,6.56,0,0,0-2.932-.673,6.324,6.324,0,0,0-5.162,2.626V64.5H96.561V86.964h7.285V80.392a6.639,6.639,0,0,0,5.225,2.463,6.407,6.407,0,0,0,2.885-.672,7.029,7.029,0,0,0,2.359-1.922,9.708,9.708,0,0,0,1.594-2.988A12.058,12.058,0,0,0,116.5,73.4V73.331A11.674,11.674,0,0,0,115.924,69.571Zm-9.4,7.144a3.253,3.253,0,1,1,3.163-3.252A3.208,3.208,0,0,1,106.529,76.715ZM117.542,90.6h5.919v2.076h-3.555V93.6h3.3v1.89h-3.3v2.376h-2.364V90.6Zm6.548,0h2.363v7.267H124.09V90.6Zm5.332,2.056h-2.08V90.6h6.525v2.056h-2.081v5.211h-2.364V92.654Zm5.323-2.056h2.212l2.515,3.208V90.6h2.343v7.267h-2.1l-2.625-3.354v3.354h-2.344V90.6Zm8.343,0h6.03v1.993h-3.707v0.737h3.455v1.755h-3.455v0.788h3.757v1.993h-6.08V90.6ZM153.319,98a6.406,6.406,0,0,1-2.014-.306,4.411,4.411,0,0,1-1.611-.919l1.262-1.547a3.73,3.73,0,0,0,1.212.654,4.229,4.229,0,0,0,1.263.2A0.952,0.952,0,0,0,153.9,96a0.252,0.252,0,0,0,.141-0.228V95.746a0.3,0.3,0,0,0-.206-0.257,3.507,3.507,0,0,0-.773-0.219q-0.6-.125-1.136-0.291a3.868,3.868,0,0,1-.95-0.425,2.029,2.029,0,0,1-.651-0.649,1.8,1.8,0,0,1-.242-0.97V92.913a2.376,2.376,0,0,1,.2-0.966,2.225,2.225,0,0,1,.576-0.779,2.706,2.706,0,0,1,.939-0.518,4.07,4.07,0,0,1,1.288-.187,5.879,5.879,0,0,1,1.8.249,4.273,4.273,0,0,1,1.389.748l-1.152,1.64a3.51,3.51,0,0,0-1.065-.545A3.613,3.613,0,0,0,153,92.384a0.707,0.707,0,0,0-.388.083,0.25,0.25,0,0,0-.127.218v0.022a0.237,0.237,0,0,0,.041.135,0.387,0.387,0,0,0,.146.12,1.483,1.483,0,0,0,.288.109c0.121,0.035.276,0.07,0.464,0.1a9.772,9.772,0,0,1,1.232.3,3.537,3.537,0,0,1,.955.452,1.973,1.973,0,0,1,.616.659,1.869,1.869,0,0,1,.217.934V95.54a2.326,2.326,0,0,1-.222,1.028,2.19,2.19,0,0,1-.626.772,2.93,2.93,0,0,1-.985.488A4.541,4.541,0,0,1,153.319,98Zm7.02,0a6.412,6.412,0,0,1-2.015-.306,4.42,4.42,0,0,1-1.611-.919l1.263-1.547a3.72,3.72,0,0,0,1.212.654,4.228,4.228,0,0,0,1.262.2A0.949,0.949,0,0,0,160.914,96a0.252,0.252,0,0,0,.142-0.228V95.746a0.3,0.3,0,0,0-.207-0.257,3.49,3.49,0,0,0-.773-0.219q-0.6-.125-1.136-0.291a3.885,3.885,0,0,1-.95-0.425,2.049,2.049,0,0,1-.651-0.649,1.812,1.812,0,0,1-.242-0.97V92.913a2.36,2.36,0,0,1,.2-0.966,2.225,2.225,0,0,1,.576-0.779,2.7,2.7,0,0,1,.938-0.518,4.081,4.081,0,0,1,1.289-.187,5.884,5.884,0,0,1,1.8.249,4.278,4.278,0,0,1,1.388.748l-1.151,1.64a3.5,3.5,0,0,0-1.066-.545,3.6,3.6,0,0,0-1.055-.171,0.713,0.713,0,0,0-.389.083,0.251,0.251,0,0,0-.126.218v0.022a0.244,0.244,0,0,0,.04.135,0.4,0.4,0,0,0,.146.12,1.509,1.509,0,0,0,.288.109c0.122,0.035.276,0.07,0.465,0.1a9.858,9.858,0,0,1,1.232.3,3.566,3.566,0,0,1,.955.452,1.983,1.983,0,0,1,.616.659,1.879,1.879,0,0,1,.217.934V95.54a2.326,2.326,0,0,1-.222,1.028,2.182,2.182,0,0,1-.627.772,2.911,2.911,0,0,1-.985.488A4.534,4.534,0,0,1,160.339,98Z" transform="translate(-79 -60)"/>
</svg>
