<?xml version="1.0" encoding="utf-8"?>
<!-- Generator: Adobe Illustrator 16.0.0, SVG Export Plug-In . SVG Version: 6.00 Build 0)  -->
<!DOCTYPE svg PUBLIC "-//W3C//DTD SVG 1.1//EN" "http://www.w3.org/Graphics/SVG/1.1/DTD/svg11.dtd">
<svg version="1.1" id="Слой_1" xmlns="http://www.w3.org/2000/svg" xmlns:xlink="http://www.w3.org/1999/xlink" x="0px" y="0px"
	 width="16px" height="15px" viewBox="0 0 15 16" enable-background="new 0 0 15 16"
	 xml:space="preserve">
<g>
	<polygon fill="#F26122" points="13.678,6.991 13.678,15 0,15 0,0.815 11.146,0.815 11.146,1.889 0.795,1.889 0.795,13.929 
		12.859,13.929 12.859,6.991 	"/>
	<path fill="#F26122" d="M15.985,0.815c-0.137,0.152-8.7,9.851-8.835,10.002c-0.135,0.151-0.603,0.165-0.75,0
		s-3.147-3.114-3.32-3.306C2.907,7.319,3.584,6.425,3.83,6.678C4.075,6.932,6.421,9.354,6.542,9.49c0.122,0.136,0.318,0.124,0.429,0
		c0.109-0.123,8.147-9.326,8.277-9.472C15.379-0.128,16.12,0.662,15.985,0.815z"/>
</g>
<path fill="#F26122" d="M6.54,9.49"/>
</svg>
