<?xml version="1.0" encoding="utf-8"?>
<!-- Generator: Adobe Illustrator 16.0.0, SVG Export Plug-In . SVG Version: 6.00 Build 0)  -->
<!DOCTYPE svg PUBLIC "-//W3C//DTD SVG 1.1//EN" "http://www.w3.org/Graphics/SVG/1.1/DTD/svg11.dtd">
<svg version="1.1" id="Слой_1" xmlns="http://www.w3.org/2000/svg" xmlns:xlink="http://www.w3.org/1999/xlink" x="0px" y="0px"
	 width="595.28px" height="841.89px" viewBox="0 0 595.28 841.89" enable-background="new 0 0 595.28 841.89" xml:space="preserve">
<g>
	<polygon fill="#F26122" points="149.041,385.708 149.041,393.717 135.364,393.717 135.364,379.532 146.509,379.532 
		146.509,380.606 136.158,380.606 136.158,392.646 148.222,392.646 148.222,385.708 	"/>
	<path fill="#F26122" d="M151.348,379.532c-0.137,0.152-8.7,9.851-8.835,10.002s-0.603,0.165-0.75,0
		c-0.148-0.165-3.148-3.114-3.32-3.306c-0.172-0.192,0.505-1.086,0.751-0.833c0.245,0.254,2.59,2.676,2.712,2.812
		c0.122,0.136,0.318,0.124,0.428,0c0.11-0.123,8.148-9.326,8.278-9.472C150.742,378.589,151.484,379.379,151.348,379.532z"/>
</g>
<path fill="#F26122" d="M141.904,388.207"/>
</svg>
