<svg width="40" height="40" viewBox="0 0 40 40" fill="none" xmlns="http://www.w3.org/2000/svg">
    <rect width="40" height="40" rx="20" fill="#7927F3"/>
    <path fill-rule="evenodd" clip-rule="evenodd" d="M20 32C24.4183 32 28 28.4183 28 24C28 19.5817 24.4183 16 20 16C15.5817 16 12 19.5817 12 24C12 28.4183 15.5817 32 20 32ZM20 29C22.7614 29 25 26.7614 25 24C25 21.2386 22.7614 19 20 19C17.2386 19 15 21.2386 15 24C15 26.7614 17.2386 29 20 29Z" fill="#FCFCFD"/>
    <path d="M23 24C23 25.6569 21.6569 27 20 27C18.3431 27 17 25.6569 17 24C17 22.3431 18.3431 21 20 21C21.6569 21 23 22.3431 23 24Z" fill="#FCFCFD"/>
    <path d="M24.5835 15.11C24.8349 15.2399 25.1484 15.1528 25.2825 14.9036L28.2061 9.4741C28.5649 8.80787 28.0823 8 27.3256 8H23.5935C23.2275 8 22.8908 8.19989 22.7156 8.52115L21.2695 11.1722C21.1881 11.3215 21.1881 11.5019 21.2695 11.6511L22.6613 14.2026C22.7254 14.3201 22.834 14.4064 22.9618 14.4459C23.5253 14.6204 24.0675 14.8434 24.5835 15.11Z" fill="#FCFCFD"/>
    <path d="M15.4165 15.1102C15.165 15.2399 14.8515 15.1528 14.7174 14.9036L11.7938 9.4741C11.435 8.80787 11.9176 8 12.6742 8H16.4064C16.7723 8 17.1091 8.19989 17.2843 8.52115L19.8588 13.241C20.0434 13.5795 19.7912 13.995 19.4064 14.0181C18.0186 14.1013 16.6534 14.4727 15.4165 15.1102Z" fill="#FCFCFD"/>
</svg>
