<svg width="40" height="40" viewBox="0 0 40 40" fill="none" xmlns="http://www.w3.org/2000/svg">
    <rect width="40" height="40" rx="20" fill="#E03838"/>
    <path fill-rule="evenodd" clip-rule="evenodd" d="M20 32C26.6274 32 32 26.6274 32 20C32 13.3726 26.6274 8 20 8C13.3726 8 8 13.3726 8 20C8 26.6274 13.3726 32 20 32ZM18.2931 14H22.1552C24.2753 14 26 15.6978 26 17.7846C26 19.8714 24.2752 21.5692 22.1552 21.5692H19.3793V22.6893H21.6034C22.2033 22.6893 22.6896 23.168 22.6896 23.7585C22.6896 24.349 22.2033 24.8277 21.6034 24.8277H19.3793V25.9308C19.3793 26.5213 18.893 27 18.2931 27C17.6932 27 17.2069 26.5213 17.2069 25.9308V24.8277H16.0862C15.4863 24.8277 15 24.349 15 23.7585C15 23.168 15.4863 22.6893 16.0862 22.6893H17.2069V21.5692H16.0862C15.4863 21.5692 15 21.0905 15 20.5C15 19.9095 15.4863 19.4308 16.0862 19.4308H17.2069V15.0692C17.2069 14.4787 17.6932 14 18.2931 14ZM19.3793 19.4308H22.1552C23.0774 19.4308 23.8276 18.6923 23.8276 17.7845C23.8276 16.8768 23.0773 16.1383 22.1552 16.1383H19.3793V19.4308Z" fill="white"/>
</svg>
