<svg width="40" height="40" viewBox="0 0 40 40" fill="none" xmlns="http://www.w3.org/2000/svg">
    <rect width="40" height="40" rx="20" fill="#E33933"/>
    <path fill-rule="evenodd" clip-rule="evenodd" d="M26.818 22.1249C26.2016 21.4102 25.1428 21.4471 24.3149 21.9002C23.0338 22.6014 21.5635 23.0001 20 23.0001C18.4365 23.0001 16.9662 22.6014 15.6851 21.9002C14.8572 21.4471 13.7984 21.4102 13.182 22.1249C11.8222 23.7015 11 25.7548 11 28.0001V29.0001C11 30.1047 11.8954 31.0001 13 31.0001H27C28.1046 31.0001 29 30.1047 29 29.0001V28.0001C29 25.7548 28.1778 23.7015 26.818 22.1249Z" fill="#FCFCFD"/>
    <path d="M25 14C25 16.7614 22.7614 19 20 19C17.2386 19 15 16.7614 15 14C15 11.2386 17.2386 9 20 9C22.7614 9 25 11.2386 25 14Z" fill="#FCFCFD"/>
</svg>