<svg width="40" height="40" viewBox="0 0 40 40" fill="none" xmlns="http://www.w3.org/2000/svg">
    <rect width="40" height="40" rx="20" fill="#E03838"/>
    <path d="M27.619 22.8568C27.619 27.0647 24.2078 30.4759 19.9999 30.4759C15.792 30.4759 12.3809 27.0647 12.3809 22.8568C12.3809 18.649 15.792 15.2378 19.9999 15.2378C24.2078 15.2378 27.619 18.649 27.619 22.8568Z" fill="#FCFCFD"/>
    <path d="M15.1447 13.7949C14.8441 12.5927 15.7534 11.4282 16.9926 11.4282H23.0072C24.2463 11.4282 25.1556 12.5927 24.855 13.7949L24.7902 14.0544C24.6626 14.5646 24.9729 15.0817 25.4832 15.2093C25.9934 15.3369 26.5105 15.0266 26.6381 14.5163L26.7029 14.2569C27.304 11.8525 25.4855 9.52344 23.0072 9.52344H16.9926C14.5142 9.52344 12.6957 11.8525 13.2968 14.2569L13.3616 14.5163C13.4892 15.0266 14.0063 15.3369 14.5166 15.2093C15.0268 15.0817 15.3371 14.5646 15.2095 14.0544L15.1447 13.7949Z" fill="#FCFCFD"/>
</svg>
